<svg width="127" height="123" viewBox="0 0 127 123" fill="none" xmlns="http://www.w3.org/2000/svg">
<path d="M69.4157 0.377547C67.116 0.365583 64.1795 1.16485 63.3149 3.48131C64.0206 7.71432 63.3279 12.2256 65.2964 16.1885C66.4479 16.4702 67.6099 16.7038 68.7719 16.9373C67.9497 15.6484 65.8224 13.8518 67.4159 12.2987C70.6494 8.17299 76.3502 7.44759 80.0682 3.88433C80.9296 3.09029 83.5717 2.15128 81.033 1.9908C77.2404 1.0153 73.3446 0.32087 69.4157 0.377547Z" fill="#3D3C3C" stroke="#3D3C3C" stroke-width="0.125"/>
<path d="M80.5568 2.06987C78.0735 3.92361 75.5992 5.80482 72.6976 6.98123C69.935 8.3998 66.694 10.0899 65.628 13.2122C65.4848 14.6089 66.403 16.4004 67.7021 16.6623C68.6438 16.8543 70.3275 16.3601 70.846 16.847C69.9031 19.3775 72.0359 21.45 72.6324 23.755C73.7855 26.7587 74.5169 30.3701 77.5823 32.0702C78.9017 32.6206 77.6388 34.2396 78.3623 35.2702C79.6385 37.7443 83.0888 37.1351 85.0183 35.8691C86.7881 34.5253 85.9149 31.3392 88.4271 30.7715C91.3442 29.125 94.9905 29.3619 97.7674 27.4747C98.4959 26.9176 99.0426 26.0926 99.1564 25.1717C100.911 25.3432 101.792 24.9514 100.767 23.2464C101.946 22.8438 102.065 21.9761 101.859 20.8789C101.981 18.4711 102.455 15.8618 101.043 13.6937C100.142 11.6707 97.7374 11.2401 96.15 9.91013C95.0835 10.0467 93.949 8.77128 92.6939 9.1808C89.6666 9.88514 86.4456 9.54322 83.4357 10.0264C84.6363 8.42873 86.6267 7.77646 88.1268 6.52431C88.4087 5.07942 87.5301 4.40424 86.297 3.97934C84.5336 3.10254 82.4504 2.10287 80.5568 2.06987ZM80.6601 10.1149C80.582 11.2595 80.8617 12.3893 81.1622 13.4842C84.07 13.6519 86.7676 10.5376 89.586 12.2663C92.0699 13.345 94.831 11.8459 97.2977 13.0818C99.4575 13.7955 99.3028 16.292 99.0785 18.121C99.559 19.83 97.5909 21.2117 98.3893 22.9194C98.7768 23.7352 97.3005 23.7392 96.9938 24.4506C95.9067 25.9252 94.6799 27.4135 92.7134 27.5302C89.0714 28.1791 84.9047 29.5343 83.2811 33.1943C82.9741 34.4061 81.37 35.4604 80.4801 34.3603C80.8529 32.7166 80.49 30.859 79.2132 29.6893C78.3432 30.6511 78.02 29.0223 77.2341 28.7629C75.3925 27.4318 75.3338 24.8193 74.2354 22.9819C73.6389 21.4084 72.5557 19.65 73.1638 17.9616C74.64 17.6244 75.6478 16.1503 75.4067 14.6531C72.9399 13.9229 69.9508 15.5658 67.8673 13.7096C67.0118 13.0467 68.8065 13.1256 69.1201 12.6988C70.3177 12.4098 71.1899 10.5239 72.5088 11.4974C73.7082 12.2425 74.9084 10.7761 76.2735 11.1983C77.7785 11.3255 79.5929 11.2065 80.6601 10.1149Z" fill="#4A494B" stroke="#4A494B" stroke-width="0.125"/>
<path d="M52.6329 2.68768C48.5646 2.553 46.7531 6.90012 43.4337 8.41843C42.2739 9.20746 40.442 8.73313 40.0538 10.3574C38.0481 13.4404 34.0926 14.6633 30.5903 13.8258C28.761 13.2636 27.4424 15.1529 26.0715 16.1365C24.5811 17.3899 23.2777 19.2019 23.8576 21.2442C23.9737 22.9375 25.7221 24.8732 24.1662 26.2905C21.9455 29.3467 18.5998 31.9776 17.809 35.8338C17.6442 37.727 18.1281 39.5907 18.4047 41.4488C21.3087 41.4114 23.4042 43.8244 26.0776 44.3502C28.1969 44.334 30.3442 43.4509 32.331 43.3895C33.2546 44.0715 34.3503 44.7265 35.5451 44.5974C34.985 46.9884 37.106 44.4985 37.5619 44.9025C37.6003 45.9318 39.3495 45.5414 40.2373 45.5981C44.9809 45.1835 48.4383 41.5108 52.3148 39.1791C55.1594 37.0747 58.2822 35.376 61.5099 33.9773C62.953 32.7122 62.6589 30.3537 64.4632 29.3304C65.7759 28.0329 67.1136 26.7533 68.2887 25.3263C68.0753 23.9069 67.6461 22.6377 66.3013 21.9346C64.519 20.6611 62.861 18.9584 60.6154 18.5977C61.7963 21.231 65.2772 22.2322 65.9231 25.1811C63.2586 28.3066 60.1579 31.1241 56.9641 33.7264C52.3549 36.917 47.7591 40.7273 42.1881 42.0052C38.5239 42.2936 34.9527 41.2959 31.3249 41.1933C29.7834 41.4599 27.9867 42.2006 26.7082 40.8823C25.3787 39.9099 23.3953 39.8965 22.3316 38.6607C21.6494 35.7153 23.4065 32.7737 24.771 30.2994C26.0661 28.4305 26.8769 26.2704 28.0341 24.3474C29.8295 22.7421 32.5887 22.3664 33.8056 20.0711C35.3524 17.3901 37.5358 15.097 40.3813 13.7397C42.1411 12.8648 43.0241 10.4787 45.2854 10.715C46.6031 10.591 47.9729 10.9467 48.9804 11.829C51.0219 10.1822 53.0973 8.33993 55.8482 8.13166C57.0566 8.09432 58.6141 7.13031 59.3993 8.45915C61.4935 10.5696 60.566 8.00171 59.8235 6.62403C58.8416 3.72616 55.4078 2.68089 52.6329 2.68768Z" fill="#4D4E50" stroke="#4D4E50" stroke-width="0.125"/>
<path d="M63.771 2.83047C61.4313 3.36318 59.172 4.03987 56.8365 4.61071C58.2729 6.05536 59.8006 7.5105 60.3793 9.51537C60.8374 10.5854 62.8614 10.7432 61.8899 12.1577C60.4792 14.7894 63.3626 12.898 64.796 12.684C65.8144 12.0557 64.8563 10.0254 65.0114 8.79607C64.8629 6.74869 64.6703 4.70483 64.4431 2.66466C64.2191 2.71993 63.9951 2.7752 63.771 2.83047Z" fill="#452720" stroke="#452720" stroke-width="0.125"/>
<path d="M86.8032 5.28339C87.1426 6.55216 85.214 6.68477 84.5439 7.43773C82.9645 8.36688 81.7896 9.90467 81.4324 11.7205C85.3447 10.587 89.4963 11.1253 93.4551 10.3533C94.7765 10.6464 95.933 12.0633 97.1881 10.7341C94.2877 8.44321 90.5941 6.29346 87.1609 4.4107C86.2079 3.63663 86.9534 4.90423 86.8032 5.28339Z" fill="#3C3C3C" stroke="#3C3C3C" stroke-width="0.125"/>
<path d="M111.705 50.848C110.81 51.0485 109.955 51.3897 109.084 51.6735C109.975 52.2606 110.833 52.895 111.726 53.4785C111.767 52.5121 113.985 49.7108 111.705 50.848Z" fill="#3C3C3C" stroke="#3C3C3C" stroke-width="0.125"/>
<path d="M58.1813 5.98912C58.9558 7.99286 60.3324 9.76599 60.9435 11.8001C59.0004 14.5825 55.4757 15.324 52.6483 16.8523C54.6458 17.5283 56.6533 18.1741 58.6788 18.7618C58.371 17.8786 56.7243 16.65 58.3017 16.2115C59.7396 15.0812 62.3566 15.3762 62.8173 13.2191C63.0982 12.0368 64.1174 10.421 62.5431 9.86352C60.9178 9.11482 61.1129 7.02697 59.7686 5.97201C58.7568 5.07357 57.0247 2.90848 58.1813 5.98912Z" fill="#4E3E3B" stroke="#4E3E3B" stroke-width="0.125"/>
<path d="M58.713 6.44171C55.4994 6.89257 51.9889 7.32954 49.6177 9.80924C48.8345 10.8639 47.8028 9.43112 46.7423 9.55256C45.2466 9.33943 43.7494 9.69317 42.3014 10.0323C42.869 10.6893 43.831 11.2323 43.1003 12.0822C42.7868 12.6624 43.1252 13.7224 42.161 13.2942C38.3888 13.0817 35.0697 16.1782 34.0953 19.6728C35.8309 21.5001 38.4632 20.1779 40.291 19.2515C41.0054 18.562 42.1191 19.8791 41.0398 20.2842C37.7647 23.4423 33.6904 25.6793 30.6841 29.137C27.98 31.4359 24.4871 34.027 24.6303 37.9933C25.1774 38.3423 26.6061 37.6068 27.4393 37.156C30.3764 35.2074 32.5566 32.3485 35.292 30.139C36.5404 28.9968 37.7803 27.7922 39.0324 26.687C40.8879 27.8386 43.212 28.0642 45.293 27.9208C45.4404 29.4498 43.8745 30.4643 42.7723 31.2612C41.2524 32.2151 39.6363 33.0322 37.798 32.8072C35.0029 33.0916 33.0662 35.4413 30.4186 36.1812C28.8996 36.6763 28.5504 38.8009 29.8816 39.7087C31.2046 41.2683 33.3617 41.4 35.1474 40.6622C36.7802 39.8493 38.3157 41.3556 39.9895 40.7655C40.8377 40.6997 41.8098 39.718 42.2129 40.9101C42.8774 42.0785 44.1222 42.2423 45.2889 41.7055C48.8361 40.3419 51.8907 37.9583 55.073 35.9241C58.1531 33.6831 61.471 31.8636 64.0267 28.9921C65.0596 27.6495 67.4097 26.5815 67.0755 24.6123C66.0861 21.9553 63.629 20.1766 61.4273 18.5871C59.7032 17.6685 57.769 17.2784 55.9302 16.6629C58.2918 15.5783 61.2826 14.3476 62.1944 11.7689C61.6549 9.74548 60.6156 7.76382 59.0175 6.38742L58.7201 6.44045L58.713 6.44171ZM59.9817 24.9988C61.092 24.9457 62.1885 25.484 62.7963 26.4232C64.4615 25.2657 64.6459 26.0526 63.2668 27.1997C61.1243 29.5394 58.6052 31.8358 55.3974 32.4915C53.7779 35.4878 49.7565 35.5837 47.7991 38.3043C46.9128 39.1214 45.6121 40.2173 44.4481 40.0338C44.0589 38.5741 45.2799 37.0816 44.3123 35.6991C44.0524 34.514 45.6954 33.7992 46.1774 32.8595C48.1558 30.6764 49.9751 28.0752 52.974 27.2511C55.1729 26.6678 57.3722 25.5009 59.6577 25.0142C59.7654 24.9989 59.8735 25.0071 59.9817 24.9988Z" fill="#5B5B5F" stroke="#5B5B5F" stroke-width="0.125"/>
<path d="M70.5651 12.0769C70.6409 13.4132 71.676 14.3873 72.9773 14.5563C73.9964 14.9569 75.1084 15.522 75.697 16.4416C74.6784 17.8948 72.1229 18.8433 72.7018 20.991C73.8167 23.9961 75.0426 27.3244 77.7179 29.2986C79.6259 30.4749 82.4502 30.1104 83.7414 32.2926C85.6308 31.6481 86.2145 29.2765 88.3663 29.1954C90.7676 28.2903 93.6028 27.8781 95.6136 26.3247C96.3547 25.1303 97.6319 24.3982 98.9717 24.0742C98.3622 22.7424 97.9662 20.6992 96.1122 20.8329C95.1663 20.7413 94.2168 20.8782 93.2893 21.0571C93.6837 19.3843 91.6402 19.6214 90.6729 18.9193C88.7353 17.9546 87.4707 15.7777 85.1511 15.5058C84.4108 15.2531 82.9661 15.7579 83.5596 14.5687C83.7186 13.4876 82.7876 12.6905 81.821 13.442C80.6843 13.7847 79.1327 14.6679 78.5475 13.1315C78.0658 11.8693 76.9286 13.5589 75.9979 12.7124C74.9306 11.9945 73.6776 11.897 72.4705 11.8208C71.4921 11.6348 69.6437 9.96944 70.5651 12.0769ZM74.5646 19.9767C75.6058 20.2271 76.4144 21.4619 77.279 21.4918C80.0613 19.9107 82.9367 22.4424 85.8822 22.0543C87.4139 22.3317 89.0512 23.1095 90.4635 23.349C90.4835 24.6043 88.9059 25.3788 88.8247 26.31C89.3277 27.2044 87.3103 27.0782 86.6687 27.5396C85.0668 28.078 83.4083 29.3234 81.7115 28.3144C79.8422 27.467 77.6472 26.8987 76.6812 24.8678C75.8014 23.3067 74.4657 21.7966 74.4212 19.9207L74.5646 19.9767Z" fill="#5B5B5F" stroke="#5B5B5F" stroke-width="0.125"/>
<path d="M82.4485 7.34096C80.3611 6.79963 80.4372 9.67477 78.5972 9.89124C76.8576 10.2644 74.9098 9.56668 73.2936 10.5238C72.1658 9.74511 70.6857 9.84159 69.7792 10.9115C68.5476 11.7726 67.1145 12.2953 65.6463 12.582C66.4942 14.4951 68.2954 16.0667 70.4984 15.8167C71.6779 15.8702 73.1174 15.5002 74.0991 15.779C73.6816 17.1056 71.4022 16.4659 71.8579 18.1422C71.4105 21.2042 73.6107 23.8193 74.4367 26.6244C74.7449 28.3886 76.1341 29.4473 77.381 30.5407C77.6299 32.1114 78.4701 31.0967 79.1082 31.5775C79.6286 32.7175 79.353 34.0243 79.0574 35.1864C80.4635 36.0443 82.7432 36.5866 83.703 34.8069C84.7608 32.8219 86.0744 30.8723 88.2843 30.0362C91.0953 28.6174 95.1554 29.2413 97.0675 26.2734C97.7493 25.281 98.6713 24.3038 99.9836 24.3314C99.6456 22.9628 99.026 21.5584 100.03 20.3485C100.63 18.8325 100.186 17.1648 100.383 15.5744C100.384 12.9184 97.6144 11.4663 95.2647 11.3682C93.3243 11.0838 91.1618 12.047 89.3718 10.8259C86.86 9.6386 84.3011 11.9175 82.0526 12.0828C81.507 10.4116 81.9635 8.39018 83.8216 7.77671C86.0384 6.65702 82.9566 7.53592 82.4485 7.34096ZM72.3365 13.044C73.5044 13.117 74.6515 13.2153 75.6869 13.8931C76.6112 14.5172 77.9107 13.5362 78.3325 14.8283C79.1982 15.892 80.8917 14.893 82.0361 14.6454C82.7761 14.3369 81.8122 15.7566 82.0564 16.1791C82.7064 16.9043 84.5272 16.304 85.6267 16.9007C87.6965 17.5642 88.7559 19.8353 90.9302 20.3514C92.4664 20.3066 91.8173 22.124 92.4268 22.4569C93.8379 22.3115 95.7235 21.4774 96.9259 22.4438C97.6868 23.3047 96.9135 23.592 96.173 24.0134C95.0383 24.8592 94.4315 26.24 92.8717 26.4266C90.528 27.4829 87.7025 27.7503 85.5604 29.0999C84.9651 29.6094 84.2648 31.3751 83.4759 30.2728C81.4553 28.6858 78.2843 29.2706 76.8671 26.8174C75.6241 24.7427 74.1557 22.5344 73.8601 20.1054C74.7916 18.805 76.2494 17.8639 77.2182 16.5443C76.2698 14.6053 74.2139 13.6118 72.2468 13.0163L72.3365 13.044Z" fill="#535356" stroke="#535356" stroke-width="0.125"/>
<path d="M40.9383 9.22034C36.2463 9.80369 31.6557 11.5586 28.0146 14.6212C31.5372 15.3524 35.6342 15.9087 38.6601 13.4641C40.2596 12.4406 41.364 10.8184 42.0394 9.0681C41.6724 9.11885 41.3054 9.16959 40.9383 9.22034Z" fill="#3E3E3D" stroke="#3E3E3D" stroke-width="0.125"/>
<path d="M43.134 9.8824C41.4535 11.0273 40.2741 12.7782 38.3385 13.5509C35.3546 15.043 33.8538 18.1192 31.8454 20.5509C29.9987 22.0603 26.9234 22.5397 26.1931 25.1746C24.3026 29.3955 20.713 33.2635 20.9521 38.1869C21.113 40.5583 23.8912 40.7215 25.5552 41.6252C26.837 42.6631 28.4928 43.2597 30.117 42.6643C32.8911 41.8983 35.7119 43.1711 38.5244 43.1458C41.5215 43.578 44.5347 42.9491 47.1801 41.5037C52.0605 38.8209 56.7834 35.7335 60.8963 31.961C62.7662 29.8734 60.0712 30.8786 59.029 31.7241C54.5382 34.6984 50.2499 38.0783 45.3698 40.399C44.4525 40.886 43.4135 40.998 42.9575 39.8951C42.4518 38.9025 41.793 38.5429 40.8132 39.262C39.4242 40.086 37.9853 39.4396 36.6113 39.1847C34.714 39.2155 32.5568 40.8068 30.9726 39.0466C29.8806 38.5988 30.1595 37.2566 31.2795 37.12C34.0617 36.3221 36.1349 33.5542 39.2501 33.9915C41.2895 33.8212 43.1011 32.513 44.716 31.3326C45.751 30.3237 46.8957 29.1008 46.4779 27.5072C46.8925 25.8473 45.0113 26.9436 44.0515 26.7448C42.2179 26.7745 40.3554 26.2735 38.8867 25.1481C35.0724 28.628 31.3484 32.2163 27.5178 35.6626C27.0478 35.9545 25.5077 37.155 26.2037 35.8366C27.6954 32.4038 31.3152 30.7 33.6268 27.8978C36.4598 25.1468 40.2403 23.3486 42.6501 20.1921C43.1061 18.6767 41.1402 17.1531 39.826 18.1363C38.4598 18.6107 37.0391 19.8155 35.528 19.2273C36.753 15.843 40.8695 13.267 44.3289 15.1004C43.8485 13.7717 44.006 12.2535 45.0175 11.2095C44.4257 10.8741 43.8297 9.17345 43.134 9.8824Z" fill="#545458" stroke="#545458" stroke-width="0.125"/>
<path d="M96.7755 11.7606C97.5685 12.5204 100.569 13.4513 98.9135 11.6998C98.24 10.9389 94.7456 9.55934 96.7755 11.7606Z" fill="#424240" stroke="#424240" stroke-width="0.125"/>
<path d="M64.4667 11.5216C63.1449 11.8996 61.6538 12.0635 61.3046 13.5768C59.4353 14.3057 57.4471 15.0405 55.9072 16.4298C56.4029 17.9965 57.609 18.6285 59.1243 18.9158C60.2278 19.5897 60.756 19.2156 60.5969 17.9735C60.2081 16.2217 62.5369 16.0206 63.7309 15.9666C64.5825 15.6172 67.0449 17.2467 66.5282 16.0134C65.9061 14.5065 65.307 12.9691 65.1135 11.3381C64.8979 11.3993 64.6823 11.4604 64.4667 11.5216Z" fill="#792C18" stroke="#792C18" stroke-width="0.125"/>
<path d="M99.2307 13.1567C100.994 15.0757 101.009 17.7401 100.653 20.1508C100.62 21.1039 100.998 22.1778 99.7052 22.455C99.8733 23.9286 99.292 24.0008 97.9846 24.3344C98.0947 27.1073 94.8505 27.51 92.8071 27.9995C90.4716 28.7004 87.8311 29.2575 86.0155 30.9314C84.9768 32.4885 85.333 35.2318 82.9171 35.5003C81.4699 36.2098 78.8635 35.6005 79.3542 33.5595C79.5937 32.5863 79.6267 31.6576 78.5286 31.2616C75.3566 29.5703 74.7883 25.7947 73.5528 22.7624C73.0442 20.7681 71.127 19.004 72.0963 16.8201C73.2873 14.6678 70.5638 15.6453 69.2723 15.4618C67.8811 14.745 66.4621 16.7041 68.2279 16.9674C69.2045 17.0561 70.1349 17.5013 70.1524 18.6334C71.4796 22.1319 72.7929 25.5985 73.7981 29.1765C74.7782 31.0701 77.7936 32.0901 76.9715 34.614C77.0766 37.0814 79.8216 38.8475 82.1417 38.047C84.5315 37.5754 87.5351 36.6076 88.0145 33.8437C88.1541 31.7048 90.4707 31.3666 92.009 30.583C95.3253 28.9246 99.8907 29.6722 102.482 26.6014C103.769 25.1201 106.557 24.6426 106.496 22.2733C106.845 20.0428 104.361 18.9746 103.908 16.9691C103.008 14.9905 101.937 12.9278 99.7508 12.1529C98.305 11.6994 97.7716 10.7263 99.2307 13.1567Z" fill="#3E3E3F" stroke="#3E3E3F" stroke-width="0.125"/>
<path d="M101.012 14.2997C102.573 16.4323 103.188 19.1231 105.1 21.0117C105.65 22.1307 105.161 23.5946 103.908 23.9868C101.952 25.0719 100.763 27.2398 98.4335 27.6389C95.7006 28.3888 92.8219 28.5442 90.3194 30.0072C88.943 30.5905 87.3388 31.2068 87.057 32.8668C86.808 34.53 85.7021 35.854 84.0476 36.2656C82.2534 36.9685 79.5574 37.6667 78.455 35.5434C77.8719 34.3023 78.7728 32.7117 77.646 31.597C76.4778 30.1376 74.5297 29.1589 74.4248 27.0723C73.3974 23.5733 72.0293 20.1539 70.6961 16.7785C69.9404 15.8406 68.589 15.961 67.5841 15.494C67.2826 16.9751 67.071 18.4719 66.8807 19.9708C68.0432 19.6846 69.5296 18.672 69.8712 20.3337C71.4396 23.2675 70.5137 27.0736 72.8735 29.6698C73.9745 31.06 75.9112 32.1661 75.504 34.2269C75.7884 35.6278 75.1126 36.0634 73.9622 35.0872C73.1851 34.4072 70.8041 32.7083 71.9048 34.7833C72.5562 35.8499 73.5124 36.7431 74.3221 37.7113C72.1895 37.523 70.0315 37.8425 67.9995 38.4967C69.2263 35.9042 67.3496 37.6961 66.2675 38.6719C63.1069 40.9879 58.9356 41.5333 56.0376 44.2959C53.2885 46.5148 51.5398 49.642 49.5675 52.4884C48.7661 53.1467 47.7353 53.4388 46.8792 54.0226C47.8379 54.3752 49.4741 53.7367 49.4867 55.1998C50.0215 56.6492 51.2355 57.7775 52.7515 58.1377C51.2854 61.7066 51.0299 65.5611 51.1346 69.3756C50.9715 70.6131 51.4115 73.9494 52.2785 71.1998C52.7846 69.9456 52.0143 67.8451 53.8514 67.688C53.0529 69.3379 55.5528 67.8817 56.4949 68.0792C58.29 69.221 59.1221 71.4436 60.6561 72.9166C62.1219 72.3014 62.3455 71.2154 61.7929 69.7714C61.7716 68.892 63.3274 70.2661 63.4932 70.8413C64.1313 71.9368 63.38 73.6765 64.2057 73.6149C63.7345 74.3959 63.3452 75.2215 62.9532 76.044C64.8173 75.5803 63.5852 77.0368 64.794 78.0388C65.7475 80.1134 67.918 81.7223 70.0577 81.9671C71.3837 80.6373 72.3913 82.5941 73.6559 83.0585C75.3689 84.5096 73.0596 80.809 74.2165 81.1959C76.429 81.6551 78.5342 80.5596 80.6111 79.9856C81.0943 81.2678 82.0091 83.3212 83.7207 82.4816C84.7104 82.1832 85.6044 81.6802 86.5608 81.3145C87.0767 82.9994 88.6067 84.1976 90.1389 85.0001C92.6379 85.4507 94.8517 82.6025 97.3177 83.9385C98.3681 84.1686 97.3798 85.7955 97.2133 86.3802C96.6762 87.2462 94.8703 89.841 96.9235 88.519C99.2675 86.7956 101.592 84.9297 104.423 84.0076C104.939 77.925 105.637 71.733 105.109 65.6662C104.458 63.5191 103.89 66.5079 103.905 67.4974C104.079 68.0829 103.659 69.3917 102.928 68.7047C101.491 67.9867 102.392 65.8697 101.532 65.0794C100.646 65.0621 99.8687 64.7778 99.9401 63.7452C99.9786 62.6004 99.1546 62.2883 98.1568 62.1738C96.3082 61.8409 97.472 59.8392 97.7792 58.7148C96.2004 56.2611 94.864 53.649 93.0763 51.3324C91.4301 53.5048 92.3192 56.4019 91.076 58.7225C90.3345 61.6382 91.6614 64.5478 92.9311 67.1062C95.1373 66.2175 93.0903 68.3817 92.7991 69.2368C91.5636 71.6973 88.387 72.4828 87.4205 75.1766C86.841 76.8335 85.2135 77.8889 83.7916 78.5819C83.0398 76.3931 85.4835 75.5032 86.5826 74.1145C88.4399 72.1139 90.7721 70.3388 91.3875 67.5086C88.8867 68.4374 87.0545 70.4477 84.8012 71.704C83.0643 73.4998 80.4699 73.9411 78.4597 75.3341C79.2315 77.2241 76.7799 75.8751 75.8061 75.9785C76.2507 77.0347 76.6006 77.966 75.1075 77.5251C75.2831 76.2757 73.8353 75.3606 73.0293 74.3782C73.1812 73.0601 73.84 71.3488 71.826 71.8453C70.7176 71.7952 69.1289 71.4334 69.925 73.0898C69.8318 73.7444 70.7788 76.0173 69.7851 75.438C66.544 73.8854 65.5545 70.0815 65.1695 66.8058C63.294 64.9015 61.4315 62.9034 58.9071 61.8817C57.9495 60.8709 58.499 59.0565 58.7065 57.7961C59.6855 54.2678 63.3699 52.6956 66.0812 50.6858C69.4988 48.6684 73.2802 47.4439 76.9001 45.8622C79.898 44.5989 83.1369 43.9916 86.2058 43.0434C87.6706 42.2486 85.0111 42.2554 87.5582 42.0878C92.1618 41.0026 96.8746 41.8146 101.481 41.9782C103.714 41.5255 100.664 40.7853 99.822 40.3654C98.8877 40.0238 99.1998 39.7112 100.017 39.5623C102.408 38.9908 104.716 38.0121 106.382 36.1452C108.402 34.258 109.832 31.8246 111.937 30.0227C112.57 31.1006 113.441 34.2799 113.534 31.375C114.166 27.9072 115.035 23.6706 112.278 20.8388C109.395 17.7663 105.253 16.3394 102.073 13.617C100.593 12.9972 99.4502 11.5773 101.012 14.2997ZM77.4636 40.9921C78.6297 41.587 79.9116 41.9218 81.2017 42.1126C80.0775 42.0153 78.3896 42.6252 77.607 42.1209C77.5627 41.7536 77.4903 41.3338 77.4636 40.9921ZM73.9374 42.0666C74.684 42.0654 75.9303 42.7546 75.8474 43.3441C71.1594 46.1031 65.9874 48.0704 61.7968 51.6351C59.0764 53.3713 56.8833 56.1191 53.7458 57.0856C54.0434 54.0581 55.4551 50.8848 58.4206 49.6361C61.5548 47.6688 64.8667 46.0328 68.2839 44.5649C68.5044 43.3758 70.2474 42.476 71.665 42.4023C72.4283 42.3297 73.1752 42.1212 73.9374 42.0666ZM100.107 65.6888C100.822 64.6812 99.291 64.6695 100.107 65.6888ZM100.308 68.6988C100.719 68.5507 100.194 68.5901 100.308 68.6988ZM99.0608 69.401C98.8536 70.6248 98.8374 72.0833 98.4601 73.1397C98.1437 71.9356 97.9753 70.0345 99.0797 69.231L99.0608 69.401ZM100.262 70.2914C100.85 71.1793 99.1455 70.6709 100.262 70.2914ZM97.3732 73.7999C97.8846 76.7382 96.0471 79.5054 94.3479 81.7051C93.2856 82.1833 91.6628 83.201 90.9155 81.809C89.3858 81.088 91.083 79.9835 91.5772 79.175C92.8693 77.3823 95.0861 76.5136 96.3825 74.7836C96.6633 74.3234 96.821 72.6714 97.3732 73.7999Z" fill="#363636" stroke="#363636" stroke-width="0.125"/>
<path d="M63.3846 14.7629C61.7246 14.8515 59.1739 15.4871 59.3868 17.6294C59.0497 18.8673 59.7967 19.2775 60.8667 19.6575C63.3762 21.0352 65.5537 22.8774 67.7705 24.6867C67.9148 21.6089 68.1438 18.5118 68.8527 15.5058C66.9767 15.6181 65.2579 14.6401 63.3846 14.7629Z" fill="#A63010" stroke="#A63010" stroke-width="0.125"/>
<path d="M69.3903 17.9551C68.1668 18.3554 66.468 18.3725 66.8855 20.1402C66.5465 22.3002 66.45 24.5523 67.6567 26.484C69.0459 30.2509 70.3151 34.8548 74.3227 36.6297C75.1564 36.8649 77.0756 37.676 76.6346 36.1364C76.8016 34.0919 76.9819 31.6705 75.1096 30.3091C73.0004 28.6047 72.1309 25.9522 72.0722 23.3212C71.715 21.3548 70.9515 19.4925 69.8494 17.8188L69.5598 17.9048L69.3903 17.9551Z" fill="#2C2C2A" stroke="#2C2C2A" stroke-width="0.125"/>
<path d="M24.0535 18.508C23.1789 19.9787 22.3579 21.4803 21.4949 22.9577C22.5747 24.4725 22.9784 26.7125 21.3701 28.0343C18.7383 31.6667 15.4206 35.549 15.4514 40.2869C15.5505 42.6344 18.4668 42.9825 19.8817 44.318C19.8823 45.4718 19.4003 45.9721 21.3616 45.5244C23.9909 45.7122 26.6098 45.5247 29.141 44.7408C30.6142 44.526 32.9347 43.6882 33.6203 45.6123C34.0542 47.1137 35.8256 46.4831 37.0067 47.0102C38.6453 47.6053 40.4 47.8715 41.9786 46.9636C46.6964 44.7572 50.0699 40.4735 54.84 38.3194C57.2212 36.8678 59.7487 35.6502 62.5673 35.4059C63.6453 35.1747 65.0707 35.0295 64.7905 33.6359C64.9737 32.5414 65.0486 31.2458 64.2242 30.3761C65.4523 28.5197 68.4596 27.5377 68.2446 24.8827C68.7358 22.239 67.2016 24.926 66.368 25.688C64.6056 27.8089 61.8327 29.319 61.2957 32.2378C60.6005 33.7497 58.5632 33.6588 57.3393 34.5969C52.5322 37.1541 48.4352 40.7406 43.7004 43.3818C42.221 44.0612 40.2766 44.6862 38.7875 44.287C39.3724 41.9778 37.9808 42.9674 36.6987 43.8031C36.9317 42.3032 35.3156 43.9224 34.493 43.2603C33.253 42.7861 32.3643 41.3951 30.9403 42.2829C28.6811 42.6705 26.158 43.8997 24.1042 42.2572C22.6374 41.4426 21.1339 40.5786 19.4456 40.3418C18.9546 37.951 18.4962 35.2315 20.2133 33.1943C21.9021 30.3974 24.692 28.256 26.1187 25.3764C25.9064 23.0171 24.393 20.8058 25.1762 18.39C25.6892 16.2644 24.695 18.1276 24.0535 18.508Z" fill="#444546" stroke="#444546" stroke-width="0.125"/>
<path d="M73.3473 18.9848C72.7149 21.807 74.9229 24.2108 76.3112 26.4327C77.6732 28.3631 80.1185 28.8568 82.1588 29.7495C84.523 30.5029 86.5211 28.4787 88.7664 28.1226C90.7765 27.9383 90.6012 27.2655 90.4068 26.009C91.4198 24.9704 91.9606 23.4517 91.5516 22.0237C89.0908 22.3436 86.9778 20.4577 84.4967 20.8058C82.0876 20.4427 79.5081 19.0736 77.1261 20.1278C76.0867 19.2495 74.818 18.6814 73.4972 18.3788C73.4472 18.5808 73.3973 18.7828 73.3473 18.9848Z" fill="#666366" stroke="#666366" stroke-width="0.125"/>
<path d="M21.6979 22.612C20.508 24.5826 18.4773 25.8986 17.4824 27.9763C18.7522 27.3572 19.4074 27.3828 19.0298 28.7851C18.8169 31.4043 16.5976 33.207 15.5728 35.5197C14.6672 37.5185 12.9943 39.3764 12.923 41.6405C13.116 43.8135 15.4572 44.5347 16.9832 45.5362C17.9381 46.7375 19.1639 47.8691 20.8246 47.6622C23.3818 47.3059 25.912 46.8989 28.4926 46.8839C29.469 46.9451 30.3512 46.1492 31.2948 46.4272C29.0716 47.4452 26.3928 48.3975 25.594 50.9953C24.6918 52.7336 23.7088 54.5692 26.102 52.5054C30.2096 49.6017 35.4689 50.0955 40.0768 48.732C46.5711 45.9962 51.0944 39.8789 57.8479 37.6983C60.8542 36.8307 64.8695 36.7576 66.617 33.7242C67.9006 31.412 67.6892 28.6099 68.8734 26.261C68.424 25.1319 67.5498 24.6887 66.6111 23.8656C66.4638 25.2333 67.3919 26.1906 65.9384 27.0835C64.7102 28.1053 63.1974 29.0517 62.7892 30.7136C63.994 31.347 63.7383 32.8686 63.5102 33.926C60.7925 34.5452 57.9307 34.8622 55.5934 36.5413C51.2532 38.5661 47.6193 41.6939 43.8326 44.5549C42.0389 45.7431 39.8528 46.9891 37.7055 45.9432C36.7833 45.6651 35.7742 45.523 34.8629 45.358C34.3203 43.9639 32.9985 42.8753 31.4317 43.1995C28.2807 43.4069 25.2898 44.8214 22.0814 44.3018C21.1232 43.8887 19.7815 42.6515 18.5221 42.0077C17.3613 41.5873 16.2454 40.656 16.6823 39.3204C17.3245 34.577 20.8802 31.0449 23.4038 27.2222C24.1993 25.3828 23.1789 23.4143 22.2608 21.8349C22.0732 22.0939 21.8855 22.3529 21.6979 22.612Z" fill="#3D3E3E" stroke="#3D3E3E" stroke-width="0.125"/>
<path d="M59.9427 23.5679C59.4875 24.766 59.427 23.5121 58.7077 23.7148C55.8209 24.8569 52.7059 25.5498 49.9581 27.0859C47.371 28.7777 45.6744 31.4825 43.5716 33.6978C42.4257 34.6283 42.8498 36.1002 43.2827 37.2445C42.9167 38.5677 42.5017 40.6589 43.8196 41.555C46.7317 41.874 48.6661 39.2603 50.6898 37.6576C52.7374 36.532 55.0879 35.587 56.4926 33.6823C60.6155 32.4763 63.6572 29.1 66.2553 25.8863C66.3954 24.8576 65.0392 24.3029 64.2054 24.1715C63.5467 24.3787 63.017 24.8914 62.4658 24.1969C61.7088 23.7463 60.8189 23.5509 59.9427 23.5679Z" fill="#6B6669" stroke="#6B6669" stroke-width="0.125"/>
<path d="M59.7668 23.7957C57.3549 24.0485 55.2409 25.4512 52.8891 25.9974C50.1129 26.7883 47.9341 28.7472 46.2301 31.0063C45.2166 32.4218 43.4101 33.5084 43.0207 35.2772C43.093 36.3018 43.8356 37.2271 43.2579 38.2535C43.0753 39.3616 42.9886 41.5825 44.5059 41.3544C47.8858 41.1157 49.4157 37.4551 52.4592 36.4524C53.9832 35.8155 55.3605 34.7479 56.3468 33.4993C60.6333 32.3188 63.5537 28.6913 66.398 25.5275C65.3045 24.9233 64.2395 23.7799 63.0883 24.9274C62.2172 24.0776 60.9611 23.7336 59.7668 23.7957Z" fill="#6B6669" stroke="#6B6669" stroke-width="0.125"/>
<path d="M67.6643 26.0002C66.2403 28.7306 66.9975 32.5936 64.2384 34.5214C60.8319 36.3657 56.6163 36.0272 53.4136 38.3692C48.3454 41.3151 44.3063 45.948 38.6978 47.9142C34.8502 48.605 30.8029 48.7446 27.2209 50.4674C28.7444 48.2168 31.8241 47.9312 33.9171 46.3623C32.5418 45.6289 30.9132 44.5845 29.3635 45.5061C26.6312 45.882 23.8052 45.8075 21.13 46.4336C18.8855 46.9439 18.1666 44.1925 16.2386 43.6745C14.6763 43.1992 13.3489 41.3574 14.648 39.8593C16.058 36.6906 18.1113 33.8666 19.799 30.8682C20.466 29.0527 20.251 27.0896 20.4735 25.2071C15.7955 27.948 11.8166 31.7763 8.21185 35.7782C6.51225 37.7124 5.41679 39.978 4.85296 42.487C3.89589 45.4591 4.29874 48.6573 3.7822 51.7107C4.53638 51.2389 5.17065 48.3665 6.07343 49.7947C7.21085 51.7277 7.72287 54.7351 10.3933 55.1242C12.0336 55.2773 13.6409 55.8151 15.288 55.473C16.8396 55.8741 18.4057 56.5215 20.0723 56.2501C22.1746 56.321 24.9461 55.1115 26.5648 56.8508C25.0583 58.1306 22.7331 58.0348 20.9259 58.76C19.3536 59.2503 17.6111 59.3518 16.3141 60.4661C19.6585 61.1966 23.1265 60.1777 26.4887 59.8017C32.4656 59.1 38.5261 58.4381 44.13 56.0849C46.0937 55.3514 48.0342 54.5581 49.9829 53.786C48.4499 53.2132 46.3027 52.1259 47.0467 50.0998C47.8778 47.5899 50.1702 45.9631 51.6817 43.871C55.6108 39.722 61.3921 37.6299 67.0453 37.6281C67.8752 39.8937 68.3674 37.6722 68.9068 36.4918C69.5387 34.9901 69.9194 33.3891 70.0364 31.7645C71.3226 32.8511 70.2794 29.7677 69.8907 29.0408C69.3669 27.5843 68.8296 26.1329 68.2597 24.6937C68.0613 25.1292 67.8628 25.5647 67.6643 26.0002Z" fill="#383736" stroke="#383736" stroke-width="0.125"/>
<path d="M69.0138 30.1542C68.8262 31.8246 68.4958 33.4921 68.7282 35.1752C69.5736 34.6309 69.7319 32.2095 70.9074 33.5309C73.2126 35.3619 72.1884 33.6955 71.2502 32.1192C70.6069 30.8175 69.9366 29.5298 69.2534 28.2483C69.1736 28.8836 69.0937 29.5189 69.0138 30.1542Z" fill="#C88D1B" stroke="#C88D1B" stroke-width="0.125"/>
<path d="M69.3077 31.9215C68.1353 34.0552 67.1428 37.2425 69.352 39.0814C70.609 39.3745 72.2005 38.6532 73.6188 38.8743C75.0182 38.9034 76.36 39.3396 77.7156 39.6367C75.3639 37.2564 73.3333 34.5201 70.9983 32.1676C70.3988 31.9938 69.4918 30.6971 69.3077 31.9215Z" fill="#ECC21F" stroke="#ECC21F" stroke-width="0.125"/>
<path d="M113.944 34.5284C112.194 34.4037 111.633 36.6987 110.472 37.7418C109.03 40.0021 106.99 41.9021 105.875 44.3549C105.547 46.5825 108.192 47.758 109.399 49.2654C109.867 50.3177 110.871 52.0977 111.639 50.5211C111.839 48.1124 111.705 45.4157 113.655 43.6167C115.213 41.9037 116.172 39.672 117.863 38.1043C118.896 37.7421 119.734 35.7055 118.618 35.2749C117.158 34.6128 115.525 34.5101 113.944 34.5284Z" fill="#404141" stroke="#404141" stroke-width="0.125"/>
<path d="M68.111 35.2247C67.4389 36.9628 66.6122 38.6357 65.9219 40.3666C67.6095 39.8804 69.2844 39.3483 70.9941 38.9422C69.2552 37.9858 69.1218 36.0735 69.1272 34.3324C69.2905 33.0621 68.2844 35.2529 68.111 35.2247Z" fill="#C18E1D" stroke="#C18E1D" stroke-width="0.125"/>
<path d="M117.933 35.7682C117.896 37.1943 116.111 37.4853 115.662 38.7935C113.945 41.8128 110.55 44.1972 110.62 47.9823C110.816 49.5842 110.011 47.9099 109.433 47.5825C108.638 46.6882 106.861 45.8513 107.119 44.4924C107.994 42.659 109.8 41.4016 110.273 39.3434C108.71 40.4396 106.948 41.0673 105.032 41.1254C101.449 42.0764 106.762 41.8858 105.372 43.0185C104.956 43.9915 102.421 45.2512 104.178 45.9295C106.754 47.291 107.541 50.1611 108.792 52.5745C108.046 53.6819 106.373 55.441 108.818 54.3802C107.43 56.0713 107.427 56.6954 109.834 55.5617C110.822 55.0166 111.408 57.8173 112.097 56.0329C114.475 52.9378 112.47 48.8452 113.779 45.4607C114.882 44.528 115.413 43.0923 116.267 41.9822C117.044 41.3981 118.027 41.0968 118.696 40.3654C118.235 42.2392 120.553 38.7678 120.975 39.7826C122.387 41.7684 122.033 44.2578 122.545 46.474C122.959 48.4937 123.686 45.509 123.707 44.6859C124.014 42.734 124.6 40.436 123.002 38.8725C121.708 37.1953 120.67 36.6092 118.876 35.5307C118.815 35.809 117.994 35.4899 117.933 35.7682Z" fill="#373534" stroke="#373534" stroke-width="0.125"/>
<path d="M66.1136 36.4355C59.3739 36.6375 52.6956 39.8733 48.7886 45.4424C46.9758 47.229 44.8471 49.933 46.1292 52.5946C46.9477 53.9681 48.816 54.9169 50.1074 53.6107C51.9501 51.8383 52.7973 49.2521 54.6144 47.4221C57.0889 44.3093 60.7391 42.5523 64.383 41.1968C66.0098 40.3811 67.9158 39.4656 68.4468 37.5691C68.0345 36.3302 67.2314 36.3155 66.1136 36.4355Z" fill="#2B2B2A" stroke="#2B2B2A" stroke-width="0.125"/>
<path d="M73.7904 40.8587C71.8646 41.2357 69.5538 41.1189 68.098 42.662C66.4665 41.4916 67.7721 44.4579 65.8776 44.3071C62.0822 46.1394 58.1165 47.9598 54.9265 50.7205C53.3248 52.8205 52.5349 55.4596 52.4624 58.0823C55.3228 59.0144 57.5608 56.1153 59.6879 54.7509C63.8132 51.4459 68.1925 48.4194 73.0574 46.2794C74.6641 45.4696 76.2356 44.585 77.718 43.563C76.8979 42.1557 75.5385 40.7962 73.7904 40.8587Z" fill="#2B2B2A" stroke="#2B2B2A" stroke-width="0.125"/>
<path d="M119.373 36.9253C118.57 38.4451 117.766 40.1062 116.039 40.6776C114.399 41.5428 114.266 43.6548 112.803 44.7408C111.134 47.8946 113.12 51.7746 111.406 54.8599C109.335 53.9915 113.346 51.6408 110.241 52.8042C109.582 51.5322 108.629 49.3622 107.789 47.7431C106.957 46.2982 105.514 45.3734 104.17 44.4605C103.061 45.6882 102.013 46.9683 100.955 48.2393C98.4839 46.8847 100.535 50.2257 100.597 51.5011C102.408 58.1007 104.575 64.8057 104.054 71.7617C103.928 75.5523 103.706 79.4675 103.237 83.1856C100.872 83.6566 103.138 84.279 103.667 85.4597C104.132 86.5537 104.168 89.8037 104.959 87.0777C105.926 87.7637 105.779 88.4697 104.831 89.144C103.484 90.4438 106.415 89.2235 107.334 89.1176C108.761 88.3172 109.009 90.6746 109.918 91.3139C111.279 93.8545 109.607 88.4164 110.676 89.7879C111.036 90.8093 112.54 91.6248 113.159 90.3443C114.019 89.424 113.124 87.8743 113.302 87.0293C115.626 86.7938 116.426 84.0809 118.333 83.0564C121.136 81.1917 120.66 77.2971 122.751 74.8981C125.594 70.157 124.445 64.3502 124.225 59.1515C123.136 53.5937 123.926 47.9451 123.259 42.3498C122.999 40.6404 121.883 39.2354 121.375 37.6027C119.209 40.2517 121.56 34.6646 119.69 37.4274L119.552 36.7097L119.373 36.9253Z" fill="#2A2A28" stroke="#2A2A28" stroke-width="0.125"/>
<path d="M76.0817 39.8904C76.4189 41.0613 76.1476 42.9713 76.9022 43.6283C79.4429 43.424 81.9743 43.2936 84.5173 43.075C83.8899 41.959 83.3636 40.7093 81.8765 40.983C79.68 40.7893 77.5731 39.9393 75.8876 38.509C75.9523 38.9695 76.017 39.43 76.0817 39.8904Z" fill="#D2B123" stroke="#D2B123" stroke-width="0.125"/>
<path d="M111.784 28.5982C107.991 31.418 106.056 36.6489 101.19 37.9321C99.7477 38.3388 98.3076 38.8187 97.0569 39.6685C98.6375 41.5338 101.028 42.4126 103.447 42.2141C105.48 42.322 107.925 42.4139 109.572 41.008C110.856 38.9742 112.745 37.1477 113.882 35.0831C113.585 32.8831 113.981 30.4749 112.564 28.5435C112.424 27.8157 112.126 28.4083 111.784 28.5982Z" fill="#2D2B2A" stroke="#2D2B2A" stroke-width="0.125"/>
<path d="M92.8432 40.32C90.7733 40.336 88.6996 40.5486 86.6876 41.0458C86.275 42.4273 84.2714 41.5935 83.1292 41.9709C80.9756 41.9472 80.8287 43.3738 83.0627 43.2591C86.9756 43.2849 91.1047 43.189 94.6816 45.1118C96.8297 46.0832 98.6474 47.676 100.285 49.2955C101.897 50.3029 102.474 47.8174 103.555 47.01C105.138 45.1578 106.765 43.3384 108.194 41.3615C103.072 41.0932 97.9722 40.3817 92.8432 40.32Z" fill="#973518" stroke="#973518" stroke-width="0.125"/>
<path d="M100.586 40.9917C101.672 42.0034 104.766 42.0703 105.032 41.1254C103.796 40.2701 101.877 40.254 100.586 40.9917Z" fill="#4B3028" stroke="#4B3028" stroke-width="0.125"/>
<path d="M87.0847 40.9626C85.3492 41.0606 83.6027 41.0999 81.8491 41.0806C82.5212 42.5979 83.3963 43.7192 85.1924 43.0402C86.7719 43.6879 88.3496 41.8216 87.7512 40.9122C87.5291 40.929 87.3069 40.9458 87.0847 40.9626Z" fill="#BD6516" stroke="#BD6516" stroke-width="0.125"/>
<path d="M85.0968 41.044C84.2173 40.8791 81.1284 41.458 82.9946 42.1087C84.6246 42.3367 86.619 42.5475 88.0754 41.5343C87.1352 40.9148 86.1772 40.9466 85.0968 41.044Z" fill="#7F4F25" stroke="#7F4F25" stroke-width="0.125"/>
<path d="M86.0586 42.0973C79.4969 43.0217 73.449 45.9796 67.4118 48.5538C64.3484 50.246 61.3052 52.186 58.8888 54.7301C57.329 56.8681 56.6315 59.9805 57.6727 62.421C59.2406 63.6863 61.2984 64.2387 62.5579 65.9278C64.049 67.0727 65.1537 68.609 65.3141 70.5168C65.7621 72.2812 66.7166 73.8717 67.8526 75.2775C70.613 74.1318 70.3222 70.411 72.8345 69.0281C73.2122 70.3653 73.72 71.9993 75.4067 71.8628C77.437 72.0426 79.3436 70.7737 80.3957 69.1042C80.1651 71.1721 81.248 69.9585 82.0815 69.106C83.527 67.5958 84.8185 65.6988 86.9543 65.1254C86.4971 64.2395 88.3169 64.5139 88.7239 63.652C90.4965 61.4215 90.1735 58.3226 91.6348 55.9262C92.3875 54.2739 92.0905 51.5646 94.3886 51.2463C95.47 50.6801 95.1148 52.7275 95.5056 53.3151C96.1087 56.5535 97.1657 60.2538 100.384 61.8127C101.697 58.9587 103.633 55.6793 102.127 52.5084C101.508 50.4411 101.372 48.0511 99.3847 46.7872C95.7613 43.5913 90.8753 41.9218 86.0586 42.0973ZM85.9359 44.7709C87.851 44.9881 90.7804 44.4573 91.4802 46.8397C92.2167 48.1399 90.4166 47.1064 90.6954 48.6199C90.7381 50.9507 89.2533 52.8686 89.1305 55.1779C89.2012 56.2233 88.1856 57.1995 87.4565 56.1533C87.3793 55.0727 88.1077 53.5646 87.5561 52.8706C84.652 52.021 85.218 56.5572 82.8044 56.8408C80.4828 56.2606 77.7696 54.5056 75.553 56.3421C73.7617 57.6336 72.1002 59.1727 70.5097 60.6597C69.1351 62.9153 68.8361 65.6222 67.993 68.081C67.8829 68.8517 67.9521 69.6317 67.9682 70.4053C66.7804 68.5983 65.5637 66.5427 66.3439 64.3094C66.4708 63.081 67.8395 61.0835 66.1225 60.3759C65.926 59.2197 66.3187 58.6006 64.5824 59.6908C63.8518 58.2553 63.1626 59.7254 62.4275 60.3481C61.7066 61.3029 61.5857 60.7752 61.6672 59.8146C61.2078 57.3073 62.4157 54.6215 64.8609 53.6379C68.6975 52.036 71.625 48.7175 75.8548 48.0183C78.4785 47.4717 80.8931 46.3284 83.2552 45.1285C84.1195 44.8526 85.0323 44.7661 85.9359 44.7709Z" fill="#404041" stroke="#404041" stroke-width="0.125"/>
<path d="M85.6745 43.5636C82.3966 43.3502 79.9656 45.9528 76.8555 46.4852C73.7244 47.1892 70.696 48.3495 68.1807 50.3907C65.6282 52.3061 61.6478 53.0076 60.6821 56.5015C60.0928 58.7353 60.7734 61.0652 60.3339 63.3227C61.6353 62.6377 62.8235 61.7529 63.8165 60.6662C64.2085 61.3956 65.2468 61.0537 65.7814 61.6221C64.9765 64.2315 64.2172 67.3973 66.1741 69.7223C67.0406 71.103 67.7439 72.5751 68.35 74.0867C69.5173 72.1419 68.9654 69.9119 69.2788 67.8178C70.3886 65.4814 70.1072 62.4388 72.2209 60.6939C74.0847 59.3771 75.5409 57.088 77.9021 56.7121C79.8902 56.708 81.7478 58.4821 83.6659 57.8728C85.1394 57.1748 85.9016 55.6548 86.4504 54.2108C86.2377 55.5023 85.8559 57.2883 87.522 57.6509C88.7029 58.1552 89.9006 57.5659 90.0929 56.279C90.4807 54.5713 90.7573 52.8508 91.5291 51.2846C91.7323 50.5239 91.7595 49.7327 91.8673 48.9562C93.3272 49.7698 93.0813 48.4438 92.8904 47.4244C92.6271 45.2434 90.6882 43.4359 88.4035 43.7306C87.4974 43.6314 86.5869 43.5517 85.6745 43.5636ZM85.5293 46.6662C86.9501 46.7176 88.73 46.7738 89.9448 47.3046C89.8013 48.7379 89.542 50.6993 88.2354 51.5047C85.8658 51.5912 83.9718 53.1029 81.819 53.8426C78.8437 54.284 75.7336 54.7974 73.3361 56.7575C71.4883 57.9064 70.1312 59.6994 69.1625 61.6203C67.4352 60.8223 68.171 58.561 68.4769 57.0526C67.6081 56.4656 66.468 55.7417 67.3782 54.6421C69.6309 51.2083 73.4492 49.2521 77.3663 48.3567C80.0432 47.6366 82.6839 46.5282 85.5293 46.6662Z" fill="#48494B" stroke="#48494B" stroke-width="0.125"/>
<path d="M85.167 45.4601C81.4143 45.4701 77.9404 47.0578 74.374 48.0098C70.9655 49.1301 67.7984 51.4095 66.0676 54.5867C65.4986 55.767 65.8588 56.9736 67.1109 57.5128C66.9293 58.9348 66.4978 60.8334 67.4674 61.8937C68.4489 62.4068 69.8057 64.3479 70.1432 62.3573C71.9356 58.4244 75.9793 55.7844 80.2334 55.3497C82.7303 55.335 84.6466 53.6177 86.9372 52.9599C88.3117 52.9027 89.8416 52.4346 90.241 50.9448C90.994 49.5123 91.2542 47.8616 91.1302 46.2573C89.1899 45.7235 87.1821 45.4247 85.167 45.4601ZM85.1782 48.1974C86.4973 48.0275 87.7565 48.6542 87.7407 50.1323C87.8606 51.0958 85.8636 51.0002 85.0931 51.5324C81.6444 52.673 78.0679 54.9914 74.3528 53.6632C72.6128 53.4398 70.811 54.9508 70.9752 56.7103C70.8035 55.8362 70.2985 54.9078 69.6004 54.4551C71.6925 51.4208 75.1137 49.676 78.6892 49.1193C80.8048 48.4769 82.9727 48.2067 85.1782 48.1974Z" fill="#545355" stroke="#545355" stroke-width="0.125"/>
<path d="M84.8838 46.9937C81.3105 47.0038 77.8159 47.9776 74.4401 49.0477C71.487 50.2747 69.171 52.6574 67.5222 55.3496C68.8992 55.0406 69.7837 56.0766 69.8972 57.3352C69.9228 58.8295 70.9286 58.1832 71.7559 57.6515C72.8475 57.2607 71.6511 55.5101 73.103 55.0989C74.585 54.4948 76.1213 55.7 77.6829 55.2252C81.7751 54.5889 85.4125 52.4085 89.3872 51.3124C88.7981 49.7408 88.7449 47.3877 86.6853 47.1412C86.0963 47.0004 85.4869 46.9758 84.8838 46.9937Z" fill="#5E5B5F" stroke="#5E5B5F" stroke-width="0.125"/>
<path d="M4.93993 48.0446C3.34623 50.1071 2.60295 52.7233 1.78955 55.1785C3.51387 58.4358 6.11781 62.1609 10.1739 62.3095C13.5156 62.2835 16.6067 60.8401 19.8687 60.2879C22.2898 59.404 25.1366 59.3796 27.2924 57.8905C28.4215 56.8832 27.3794 55.3705 26.1565 55.064C22.8941 53.9555 19.2831 56.0784 16.1212 54.3619C14.6753 54.0851 13.172 54.6291 11.7836 54.0391C9.70449 54.3052 8.38812 52.4673 7.89119 50.672C7.418 49.3857 6.55488 48.1998 5.26506 47.6398L5.07587 47.8753L4.93993 48.0446Z" fill="#2E2D2B" stroke="#2E2D2B" stroke-width="0.125"/>
<path d="M95.1215 49.7381C93.555 50.1833 91.6042 50.7015 91.3509 52.607C90.7746 55.375 89.2088 57.7959 88.8502 60.626C88.574 62.1849 87.5484 63.6786 85.783 63.5487C84.4804 63.4343 85.9447 64.6893 84.6619 64.8734C83.4146 65.6966 82.4915 66.8979 81.4856 67.9807C81.6699 66.4271 79.5116 67.5254 79.3401 68.5123C78.4054 70.0145 76.2777 71.2763 74.6248 70.3675C74.1589 69.3172 73.8678 68.1998 73.4181 67.1422C71.6221 68.1994 69.9939 69.6356 69.3815 71.6999C69.0639 72.3823 68.7102 73.1761 68.1181 73.6212C66.4321 71.7476 66.6607 69.0372 65.3377 67.0112C64.0238 65.2625 63.4058 65.1381 64.0404 67.4722C64.4534 71.2229 66.0758 75.3442 69.8441 76.8347C71.302 77.8236 71.9769 77.6234 71.4783 75.7921C71.3925 74.8656 71.2768 73.942 71.1363 73.0222C72.8003 72.889 71.0185 75.5655 72.9791 76.0865C74.653 76.5218 72.8354 79.1464 74.6772 78.7238C75.8394 78.7376 76.9543 78.8343 78.1157 78.9613C76.998 77.2957 78.0625 77.3573 79.5266 77.7493C80.7478 77.93 78.8714 75.5219 80.5851 75.5182C82.5241 74.6997 84.4821 73.77 86.0143 72.3248C86.5647 72.1465 88.1871 70.8271 87.0428 71.8474C85.8227 73.5213 83.8831 74.5742 82.7607 76.2912C82.181 77.6741 82.7782 79.1902 82.7802 80.6153C85.0931 79.2647 87.8313 78.0284 88.7369 75.2675C90.046 72.8287 93.2041 72.0403 94.1526 69.3018C94.8772 67.9733 95.5916 66.6392 96.3512 65.3301C95.1626 65.3258 93.3187 66.5211 93.1194 64.668C91.9834 62.3525 91.6848 59.6317 92.8627 57.2786C93.1428 56.1175 93.043 54.9047 93.3053 53.7411C94.4011 55.4372 95.4823 57.2238 96.4415 58.9562C95.7579 60.2902 95.4995 62.4394 97.2009 63.1061C97.8319 63.5182 99.0154 63.2013 98.8271 64.3228C98.925 65.3847 99.635 66.1541 100.727 66.1591C100.586 67.8172 101.476 69.9308 103.309 70.1043C104.773 70.1595 105.217 68.5202 105.143 67.3375C105.378 64.3467 104.255 61.4193 103.749 58.4904C103.272 56.5937 102.891 54.6446 101.917 52.9245C101.458 55.3298 101.141 57.9595 99.855 60.023C96.7589 57.434 97.1083 52.9977 95.7033 49.5245C95.5094 49.5957 95.3154 49.6669 95.1215 49.7381Z" fill="#3A3B3C" stroke="#3A3B3C" stroke-width="0.125"/>
<path d="M48.7202 53.0726C43.4534 55.0413 38.1922 57.2166 32.5562 57.853C29.9921 58.1886 33.8494 58.5679 34.4717 59.5592C35.2824 60.5752 34.2787 61.7624 33.1457 61.8082C30.534 62.4223 32.6181 62.7642 34.1289 62.9533C35.3938 62.9803 36.7043 64.0712 37.7521 63.8899C38.88 62.5386 40.3192 61.3529 42.2064 61.5572C43.7473 61.4164 46.8499 61.6738 43.9054 60.416C43.3152 60.1365 42.5935 59.9322 43.1263 59.1167C44.1598 56.6085 46.6786 55.1285 49.3492 54.8947C51.151 55.3055 50.4934 52.7457 49.1822 53.0743C49.0282 53.0728 48.8742 53.0672 48.7202 53.0726Z" fill="#AD360D" stroke="#AD360D" stroke-width="0.125"/>
<path d="M49.6401 53.5865C47.3455 53.9972 44.872 54.5211 43.3995 56.5062C42.4432 57.5869 41.1124 59.4386 42.1403 60.829C43.3718 61.6112 44.8127 62.0384 46.0778 62.7775C45.6954 61.5841 44.1073 60.2994 45.3497 59.0807C46.5403 57.1332 48.7186 55.9134 50.9772 55.7385C50.4855 55.1706 50.6292 53.1091 49.6401 53.5865Z" fill="#BF4E0D" stroke="#BF4E0D" stroke-width="0.125"/>
<path d="M50.0572 54.6634C47.1285 55.115 44.1705 57.3302 43.619 60.3281C43.986 62.4268 46.4629 63.0156 47.5866 64.668C49.555 66.5818 48.8469 64.2986 48.0433 63.0377C47.5882 61.9494 45.7606 61.2855 46.6956 59.9286C47.2006 58.187 49.104 55.8601 51.0266 57.2417C53.1086 58.5616 52.1863 57.1057 51.2923 55.9161C50.8571 55.5631 50.734 54.358 50.0572 54.6634Z" fill="#CC7213" stroke="#CC7213" stroke-width="0.125"/>
<path d="M49.6755 55.5928C47.0557 55.819 45.505 58.6805 45.2157 61.0361C45.4838 62.5208 47.1766 63.1795 47.6297 64.609C48.2234 62.4164 48.3385 59.8614 49.4819 57.9229C50.5593 57.4966 51.7536 57.4572 52.843 57.0455C51.8604 56.4454 50.91 55.5462 49.6755 55.5928Z" fill="#DD9317" stroke="#DD9317" stroke-width="0.125"/>
<path d="M51.7769 63.6234C51.4598 65.766 50.8028 68.0842 52.2147 69.9961C52.9476 67.8492 52.9582 65.4037 52.7861 63.1961C52.4706 61.6096 52.3422 63.0466 51.7769 63.6234Z" fill="#7F6B2B" stroke="#7F6B2B" stroke-width="0.125"/>
<path d="M51.2238 56.2294C49.8365 56.4624 48.0016 56.7584 47.8486 58.4929C47.4196 60.074 46.7994 61.7633 46.8207 63.3433C47.2962 65.0496 49.7081 62.2919 50.0815 64.3234C50.6555 65.784 51.1097 67.2902 51.7508 68.7265C52.2839 65.2996 52.5873 61.8902 53.8573 58.6599C53.0609 57.7867 52.5685 56.2568 51.2238 56.2294Z" fill="#EEC11F" stroke="#EEC11F" stroke-width="0.125"/>
<path d="M51.6097 57.6126C52.1862 58.2861 53.0334 60.0297 53.5039 59.7939C53.8897 58.476 54.8974 56.8391 52.7916 56.8773C51.2388 56.5035 49.5739 55.0563 51.6097 57.6126Z" fill="#A18B23" stroke="#A18B23" stroke-width="0.125"/>
<path d="M33.4433 57.6792C31.7278 57.9941 29.7006 57.702 28.7144 59.4259C28.1912 60.1913 26.5277 61.3797 26.8527 61.8855C29.2264 62.2928 31.703 62.8942 34.0876 62.7597C36.3441 62.3729 36.5713 59.0352 34.6045 58.1C34.2507 57.9052 33.8511 57.6709 33.4433 57.6792Z" fill="#C36412" stroke="#C36412" stroke-width="0.125"/>
<path d="M30.127 58.1224C27.4082 58.4517 24.6021 58.6039 22.1387 59.9327C22.752 60.9982 22.4873 63.5767 24.2641 62.6712C26.2673 62.253 28.4834 62.5845 30.4374 61.769C27.9519 61.4039 29.6161 60.2051 30.6313 59.1452C31.8966 57.8404 32.1336 57.8109 30.127 58.1224Z" fill="#A7340E" stroke="#A7340E" stroke-width="0.125"/>
<path d="M24.0959 58.9461C22.9647 59.4093 20.3055 58.6124 20.7225 60.3428C20.8751 61.3507 21.0678 62.9637 21.9197 63.2813C22.5949 62.7838 24.674 63.1579 24.0759 62.0192C23.2819 60.8531 23.8306 60.2697 25.0501 60.0714C27.9762 58.8622 25.5719 58.7319 24.0959 58.9461Z" fill="#6E2916" stroke="#6E2916" stroke-width="0.125"/>
<path d="M5.32228 59.8112C4.5181 63.7791 5.13526 67.8285 5.26622 71.8315C7.85077 69.0567 9.86615 65.6883 12.7932 63.2701C14.0642 62.8635 15.4003 63.7642 16.7073 63.8239C18.7659 64.6319 20.7952 63.7553 22.7137 63.0296C22.3042 61.9747 21.7983 60.5697 21.8596 59.2683C18.6939 59.3568 15.572 59.9042 12.579 60.8509C9.98583 61.6786 7.28291 60.6213 5.46743 58.7296C5.41905 59.0901 5.37066 59.4506 5.32228 59.8112Z" fill="#45271E" stroke="#45271E" stroke-width="0.125"/>
<path d="M48.133 65.762C48.6197 67.9947 48.3771 70.5459 49.4748 72.5519C50.6978 73.5044 51.8969 74.4672 51.9856 72.3732C52.6452 70.6641 52.2269 68.7959 52.3261 67.0141C51.6083 67.7262 50.4598 67.9306 50.0926 66.8041C49.5657 65.6845 48.7975 64.7251 47.9631 63.8189C48.0197 64.4666 48.0764 65.1143 48.133 65.762Z" fill="#A16723" stroke="#A16723" stroke-width="0.125"/>
<path d="M49.4123 62.3083C48.4384 62.3244 47.5546 62.8267 46.587 62.909C47.8707 64.7469 48.3846 67.2352 50.1859 68.661C51.1629 69.234 52.8841 68.5559 52.2646 67.2651C51.7993 65.6169 51.5138 63.4932 50.0832 62.4234C49.8684 62.3471 49.6401 62.309 49.4123 62.3083Z" fill="#D4911B" stroke="#D4911B" stroke-width="0.125"/>
<path d="M123.152 60.57C123.329 65.4945 124.296 71.1441 121.007 75.343C119.547 77.6711 119.771 81.0355 117.087 82.5023C115.545 83.352 114.927 85.6326 113.069 85.8096C110.937 84.4712 111.787 86.357 112.127 87.8708C112.172 88.3716 112.599 89.5165 112.048 89.6498C111.502 88.3652 110.344 88.0181 109.008 87.8961C108.311 87.1743 106.84 88.5167 106.411 86.926C105.811 86.1537 105.101 85.4783 104.396 84.8041C103.596 86.9264 104.107 89.6759 101.956 91.0953C100.792 92.5586 98.8678 93.1404 97.1094 92.3936C96.2487 92.1602 94.9769 92.13 94.352 91.8519C96.1041 89.3314 99.4529 87.1331 98.9115 83.6523C98.6653 82.699 97.1259 82.6833 96.2031 82.3607C94.067 82.058 92.223 84.2281 90.1578 83.6777C88.7413 82.7394 87.6355 81.5156 87.2511 79.8145C85.657 80.1214 84.2563 81.3792 82.7164 81.3434C81.7276 80.5798 81.9153 78.0299 80.2836 78.822C77.8314 79.5885 74.7108 81.1059 72.516 78.9435C70.9656 77.5361 73.5935 82.2189 71.6951 80.2105C70.7969 79.6038 69.7441 81.4453 68.7442 80.3178C67.0369 79.7054 66.2227 78.0863 65.3448 76.6517C67.1666 75.0721 66.4028 74.8121 65.002 74.6544C65.5506 73.7038 66.1109 72.7601 66.6506 71.8043C65.9164 71.8167 64.7544 72.4823 64.9329 71.3039C64.5442 69.2408 62.3974 67.7072 60.3103 68.2108C60.244 68.8509 61.3219 72.0851 60.3611 70.6726C59.1079 69.3573 58.2438 66.7237 56.053 66.8707C54.4432 67.5696 56.8693 64.7874 54.9986 65.9872C53.9169 66.5558 52.1609 66.6313 51.5667 67.6296C51.7845 68.725 50.2138 71.4973 52.1072 71.0266C53.5415 71.0119 54.9406 69.2395 56.1491 70.8313C58.5572 72.7579 60.7784 75.0588 61.7117 78.0756C62.7226 80.706 63.9971 83.5342 63.7422 86.4262C62.9772 88.417 62.387 91.099 64.3064 92.6974C64.3472 92.9543 62.9927 92.2928 62.5762 91.9977C60.8928 90.6711 59.1253 89.3876 57.6721 87.8035C56.2798 85.9232 56.2286 83.3749 54.6415 81.619C54.3726 83.0944 54.9264 84.6342 53.2678 85.4087C50.7692 87.7977 47.7009 89.691 46.1063 92.8851C44.9485 95.0769 42.854 96.5192 41.5054 98.5599C39.3107 97.2137 40.2313 98.8223 40.8935 100.219C39.8591 101.12 37.8891 98.7973 38.0318 100.055C38.2311 101.158 38.6253 102.386 37.1908 102.615C36.0622 103.507 34.7945 102.938 33.7235 102.277C32.8423 104.123 30.4086 103.657 28.8218 104.399C27.7468 104.791 26.1348 104.342 26.0896 105.892C24.98 107.444 26.3082 108.003 27.6368 108.569C30.5691 110.424 34.0254 111.207 37.4191 111.685C39.1366 111.7 40.8497 111.556 42.561 111.43C41.5651 112.461 40.5568 114.166 41.8018 115.417C43.3126 117.804 44.9174 120.166 46.3445 122.624C48.5788 122.206 50.5642 121.203 52.3007 119.743C50.3971 119.175 48.4424 120.29 46.6 119.733C45.1491 118.194 44.0874 116.118 44.7378 113.983C44.9245 112.551 45.1239 111.114 45.1839 109.666C42.2802 109.607 39.3399 109.744 36.4597 109.712C35.8682 108.492 34.5412 108.228 33.3494 108.095C32.7604 107.884 31.5613 107.379 32.8461 107.196C34.8858 106.558 37.1793 106.914 39.0194 105.615C40.665 104.324 43.2377 104.831 44.4439 102.914C45.6094 101.335 46.6712 99.4661 46.0725 97.434C45.9974 95.3351 48.2866 94.1613 49.3551 92.599C50.6925 90.671 52.7235 87.9638 55.4092 89.1211C57.2935 90.4348 56.0887 92.6383 56.4169 94.4577C56.9278 97.1617 55.0074 99.9201 56.2028 102.513C57.1727 104.472 59.6561 103.843 61.3081 103.555C60.9647 104.927 60.0862 105.956 58.6103 106.1C56.398 106.959 53.479 107.893 52.7155 110.408C52.5246 111.059 52.9312 111.932 51.9939 111.874C51.3497 112.199 50.0444 112.847 50.2617 113.39C51.2025 114.704 51.8739 114.546 53.0153 114.141C56.8915 114.7 60.6587 113.323 64.4348 112.732C65.5326 112.465 66.6782 112.012 67.2637 110.976C69.3068 113.172 72.5277 112.199 75.0697 112.831C75.915 114.709 73.4225 115.814 72.0863 116.392C73.613 116.957 75.2358 116.769 76.8281 116.879C78.5771 114.431 81.2086 112.329 84.369 112.438C88.1734 111.903 91.8198 110.613 95.3203 109.088C97.6314 108.781 100.222 108.925 102.074 107.219C103.853 106.056 104.371 103.953 104.213 101.946C104.278 100.143 106.052 99.0289 106.263 97.2298C108.544 97.0354 110.873 96.995 113.127 96.497C113.391 95.5185 113.272 94.4697 112.847 93.5555C115.149 92.8531 115.886 90.1862 117.408 88.5623C118.856 86.7487 119.771 84.6094 120.822 82.5855C122.594 81.4811 123.502 79.472 123.532 77.4324C124.141 75.6692 125.584 74.0801 124.91 72.0992C124.472 69.9533 125.476 67.9102 125.001 65.7703C124.62 63.5735 124.905 61.1221 123.64 59.2028C123.477 59.6585 123.314 60.1143 123.152 60.57ZM82.9123 85.1871C82.7218 86.7127 85.8985 84.8323 85.5051 86.6894C85.6965 87.6162 85.3819 89.1119 86.8015 88.4449C89.0748 88.5695 90.9025 87.2181 92.7382 86.0994C93.4108 85.6327 94.939 87.3176 94.7262 87.855C93.2928 89.9098 91.557 91.7237 89.9787 93.6315C91.0175 93.8459 90.3674 93.9012 89.8803 94.6956C90.6734 94.9817 93.1214 94.5583 92.8936 95.5698C90.5918 97.6264 88.4513 99.9766 85.4756 101.077C84.2488 101.551 82.9789 102.348 81.7635 102.601C79.6369 101.474 77.2093 102.428 75.0768 103.004C76.0473 104.293 73.8859 104.12 73.1184 104.638C71.8655 104.83 70.2722 105.436 69.1012 104.764C67.0951 102.873 65.4525 100.599 65.0214 97.8087C62.8021 98.1262 60.8594 99.4304 59.3892 101.075C60.4076 98.287 57.2525 100.277 57.8421 98.7561C59.0123 96.2801 58.5162 93.5093 58.6923 90.8665C61.128 93.2124 63.7534 95.4692 67.0424 96.5029C64.8291 97.7451 65.7187 97.9392 67.7788 97.5833C69.5136 97.3277 71.2837 96.9441 72.6977 95.8408C70.1698 95.5382 67.3906 95.4974 65.3725 93.6747C64.3335 93.2958 64.6852 91.1006 65.7691 91.3074C68.0452 91.3765 69.3677 89.1506 71.5146 88.7322C72.89 88.0457 75.089 87.8156 75.5866 86.2404C76.3935 86.2482 77.048 84.6713 78.2449 85.1051C79.7961 85.3019 81.372 85.1558 82.9082 84.9003L82.9123 85.1871ZM111.152 90.598C111.884 91.5924 110.119 90.7983 111.152 90.598ZM61.5601 102.902C61.575 103.144 61.3963 102.801 61.5601 102.902ZM61.7914 105.035C62.2324 105.24 61.4417 105.037 61.7914 105.035ZM61.52 106.305C62.4036 106.974 60.4885 106.867 61.52 106.305ZM60.2755 106.462C60.6093 106.961 59.7491 107.196 60.1398 106.525C60.171 106.5 60.2328 106.435 60.2755 106.462Z" fill="#302F2E" stroke="#302F2E" stroke-width="0.125"/>
<path d="M43.4597 60.2702C41.3247 60.2973 38.9208 60.4663 37.5625 62.3697C35.8957 63.4472 36.9083 64.0271 38.4571 64.5214C39.5975 64.7721 41.1425 66.2589 42.0176 65.5118C42.573 64.586 43.1222 63.2135 44.438 63.9788C46.5019 64.5748 47.6121 65.6837 49.2274 67.0155C49.0482 63.5548 46.5704 61.534 43.6054 60.2614L43.4597 60.2702Z" fill="#3B3938" stroke="#3B3938" stroke-width="0.125"/>
<path d="M28.7428 61.0556C25.5709 61.0986 22.4236 61.6319 19.4916 62.8606C17.2491 63.1923 15.1086 61.8156 12.8864 61.9561C10.3955 62.8745 9.19163 65.5857 7.40664 67.382C5.64344 69.6458 3.26922 71.812 2.87762 74.7842C4.27196 74.3657 5.15172 72.2908 5.96428 71.8214C6.0838 73.714 4.657 76.0278 6.38972 77.5817C7.56908 78.5502 8.81823 80.2117 7.61294 81.6791C6.81001 82.8251 8.82689 83.4811 9.29169 84.4814C12.5677 88.5171 15.0125 93.1423 18.1268 97.3201C20.0476 100.282 19.9356 104.597 23.1018 106.628C25.9858 108.094 28.8145 110.392 32.1858 110.107C30.7705 108.601 28.8013 107.877 27.0292 106.891C27.1108 105.31 29.038 105.889 30.0898 105.321C31.4177 104.831 33.1342 104.926 34.136 103.825C35.938 105.115 37.894 103.526 39.5534 102.798C39.4496 102.016 39.1964 101.246 40.2249 101.56C41.1375 101.435 43.0874 101.156 42.1061 99.9749C43.5679 97.3073 46.2696 95.5569 47.6126 92.7766C49.543 89.4834 53.0693 87.6696 55.5951 84.8998C56.1253 83.7533 55.2668 82.2258 54.9808 81.0159C53.5383 84.5344 50.3233 86.7172 47.7105 89.2651C45.503 92.213 43.8245 96.4551 39.7871 97.2375C39.3505 97.9276 38.3301 97.205 37.6593 97.7344C35.8076 98.9364 34.1071 100.547 31.7629 100.729C30.7093 99.811 30.9397 102.57 29.4609 101.689C28.2339 101.405 27.0499 101.65 26.4051 102.812C26.0124 103.207 25.0173 104.662 24.843 103.529C24.0866 101.512 23.3792 99.1851 24.6302 97.2518C25.2621 95.8546 25.627 94.1848 25.4378 92.7447C26.781 94.0663 27.4367 93.5551 27.8553 91.98C29.3631 90.1042 28.592 87.6437 29.2366 85.5364C30.6421 82.7776 31.2963 79.6793 30.8327 76.5924C30.6964 75.0565 30.7293 73.5142 30.7254 71.9743C28.9594 74.8404 26.9606 77.5803 25.5275 80.6424C23.6504 79.2456 21.6057 77.9273 20.067 76.162C19.4879 74.1444 20.9099 72.0662 22.0531 70.4743C24.5093 67.6581 27.9913 65.9924 31.2151 64.219C32.6423 63.7939 33.7052 62.7916 34.7927 61.8239C32.7763 61.5689 30.7568 61.3136 28.7428 61.0556Z" fill="#3A3835" stroke="#3A3835" stroke-width="0.125"/>
<path d="M32.9676 61.7914C29.6794 64.8105 25.4908 66.7026 22.2992 69.8117C20.5461 71.9297 20.622 75.0273 22.1464 77.253C22.7504 78.3271 23.3866 79.384 23.9077 80.5026C25.1542 78.7641 26.4134 76.9056 28.4324 76.0304C29.2433 75.5508 29.4985 74.3769 30.1748 73.938C30.1357 75.1891 29.9417 76.6136 31.5597 75.9885C32.6651 75.7378 34.2764 75.9083 34.1425 77.4472C34.392 80.0968 32.1188 82.1933 31.9633 84.8189C31.3165 87.4167 29.4156 89.4128 27.929 91.5557C28.6764 93.331 28.4571 95.2857 28.5433 97.1596C29.547 97.4481 31.1225 99.1624 31.5444 97.5432C32.123 96.1703 32.7739 94.7389 34.4748 94.5957C36.7922 94.2146 36.9075 91.4891 38.0127 89.8611C39.6452 86.5486 42.3541 83.589 42.4843 79.7077C42.6977 79.0286 42.1596 77.2251 43.3098 78.1724C45.1896 79.316 46.6814 82.2315 44.8292 84.0689C42.771 87.8558 40.6866 92.1592 41.6712 96.5955C45.1176 93.8399 47.4659 90.0566 50.462 86.8883C51.9179 85.3076 54.1213 83.9463 54.563 81.714C54.1395 78.6734 52.5344 75.9096 51.4149 73.0866C50.6072 70.7333 50.5098 73.6564 50.56 74.7171C50.8405 76.7225 50.8413 78.7902 49.6154 80.5114C49.1668 81.5784 48.2686 79.663 47.9961 79.1182C47.3798 78.0108 47.4681 76.362 46.5924 75.5743C44.2935 74.9516 42.013 72.6064 39.5086 73.6206C38.1255 74.3761 38.1447 76.2103 37.0863 77.2277C36.6675 75.0029 36.4735 72.7439 36.098 70.5121C34.3267 71.249 34.6615 69.4197 33.3412 69.83C31.3883 70.037 29.8162 71.3391 28.4282 72.5543C27.2199 72.3819 25.4234 71.1726 24.6093 72.6835C24.2584 73.3605 24.4689 74.294 24.0723 74.8585C23.4975 73.8072 22.5901 71.5314 24.4813 71.2922C27.039 70.893 28.005 68.1354 29.9341 66.7439C31.7156 65.0806 33.5811 63.5107 35.3993 61.8882C34.618 61.9091 33.6559 61.4462 32.9676 61.7914Z" fill="#454447" stroke="#454447" stroke-width="0.125"/>
<path d="M33.5913 61.8705C30.7144 64.3133 27.9149 66.8797 25.4059 69.6854C24.128 70.1824 22.1562 70.4222 22.1434 72.2003C21.9949 73.8048 22.9879 75.2131 23.5489 76.6382C24.6704 76.0285 25.7182 75.3827 25.5328 73.9817C25.4203 72.5075 26.9507 73.4616 27.7125 73.6754C29.6425 74.2923 30.419 71.7227 32.135 71.4108C33.4942 70.5039 33.256 72.2461 34.7255 71.7253C35.6014 72.1119 35.1399 74.0088 35.505 74.9672C35.6702 76.2299 35.8854 77.4859 36.1605 78.7294C38.1317 78.7938 38.9104 76.7761 39.5446 75.2745C40.5712 73.6432 42.6756 75.2145 43.93 75.7307C44.9373 76.3367 46.4179 76.4029 46.3091 77.9428C46.7965 79.8992 47.8748 81.8924 49.8684 82.6392C51.0275 80.4998 52.4122 78.2407 51.8376 75.7014C51.403 74.3807 52.5186 72.4774 50.77 71.9616C48.8541 70.4565 47.9233 70.119 49.4182 72.6564C50.1078 73.5056 48.5052 73.5291 48.2611 72.8281C47.4752 71.5504 46.4 71.8069 45.247 72.4369C44.2289 71.7808 42.3877 71.0762 42.2471 69.604C42.6063 68.2183 42.5942 65.5814 44.5365 65.5643C46.3733 66.2425 47.4747 68.4486 49.6855 68.3141C49.5165 66.9192 49.6471 65.31 48.1849 64.6291C46.5958 63.5063 44.4357 62.1211 42.4931 62.7969C41.6697 63.2634 41.5553 65.0246 40.4334 64.0647C38.2418 63.3167 35.9072 61.5204 33.5913 61.8705Z" fill="#4B4B4D" stroke="#4B4B4D" stroke-width="0.125"/>
<path d="M32.1976 62.4741C28.6491 64.0218 25.2309 66.0072 22.252 68.4846C20.284 70.4285 18.5655 73.1022 18.7063 75.9537C19.3769 78.2005 21.8937 79.1079 23.4374 80.6571C24.276 81.2937 25.1672 81.855 26.065 82.4032C26.9987 80.1313 28.2536 78.058 29.583 76.0092C30.0047 78.9784 29.7043 82.0389 28.2666 84.705C27.1688 86.8439 28.3357 89.4776 26.766 91.4578C26.3472 92.57 25.0337 90.7462 24.2154 90.611C23.7352 90.8405 24.3171 92.6446 24.2624 93.559C24.392 96.2794 21.8179 98.6789 22.9595 101.447C23.3121 102.804 23.7881 104.124 24.1674 105.473C25.9827 105.522 27.0017 103.808 28.1515 102.809C29.2527 102.638 31.0471 103.587 31.5757 102.319C33.0876 103.915 33.5785 103.868 32.9187 101.711C35.0678 101.372 36.6121 99.7817 38.3951 98.7516C39.2724 98.575 39.9743 99.5597 40.4633 98.3227C44.8042 97.2833 46.5368 92.6472 49.091 89.5441C51.4566 87.4888 54.0551 85.4921 55.4841 82.6238C54.302 78.6923 52.3319 74.963 52.1145 70.7911C51.9517 68.0668 51.0549 71.3529 50.7099 72.4263C50.0562 74.7271 52.0186 76.7472 52.5468 78.8981C53.0578 80.2115 53.9478 81.9271 52.5615 83.0493C50.3597 85.4556 47.8059 87.5407 46.0147 90.31C44.9647 91.5821 43.7839 93.0247 42.6365 94.0092C42.7078 89.9188 45.0858 86.3972 46.8502 82.8475C47.2907 79.6929 44.5474 76.4677 41.3455 76.3561C41.6323 79.856 40.8292 83.4318 38.6665 86.1938C37.2661 88.3753 36.2908 90.8611 35.0235 93.061C33.4406 93.6586 31.4903 94.0894 30.9667 95.973C30.8772 97.3684 29.2522 96.5291 29.7205 95.4797C29.7102 94.2275 29.6734 92.9503 29.2785 91.7499C31.1806 89.3196 33.0908 86.7044 33.4781 83.5532C34.371 81.1039 36.3558 78.414 34.8724 75.7696C34.1877 74.5657 32.5937 74.6391 31.4057 74.7901C31.7106 73.0412 31.0409 72.3259 29.2768 72.7425C28.687 74.1359 27.7138 75.2593 26.3205 75.8487C25.4083 76.4303 24.7105 77.5052 24.0688 78.1859C22.7381 76.131 21.3343 73.475 22.8592 71.1281C24.6897 68.6736 27.7043 67.444 30.0616 65.5637C31.4488 64.558 32.9352 63.6262 33.8988 62.1685C33.3317 62.2704 32.7647 62.3723 32.1976 62.4741Z" fill="#3E3D3F" stroke="#3E3D3F" stroke-width="0.125"/>
<path d="M44.2663 64.3281C41.781 64.5192 41.3544 67.5531 41.0422 69.503C40.8769 71.8365 43.6017 72.4478 44.831 73.9097C45.738 73.682 46.8247 72.5994 47.4845 73.7545C48.3718 74.9299 49.8498 74.5518 50.9526 73.9725C51.6712 73.3816 50.0375 71.9171 50.0791 70.8342C49.6561 69.624 50.0054 67.8304 49.2274 67.0155C47.2631 66.7533 46.3737 64.2715 44.2663 64.3281Z" fill="#5D5B5D" stroke="#5D5B5D" stroke-width="0.125"/>
<path d="M100.596 67.2124C99.1308 67.8366 97.2884 68.3642 97.1849 70.233C96.7439 70.9951 97.5664 72.49 96.3134 72.3838C95.1983 72.7044 95.7817 74.678 94.414 75.0467C92.1168 76.7113 89.9834 78.7242 88.6785 81.2785C89.8183 81.9374 90.5855 84.1489 91.974 83.7963C93.8119 83.4737 95.7896 82.7304 96.4857 80.8159C97.674 78.8879 98.8727 76.7338 98.679 74.3865C100.277 74.9254 99.5837 72.3983 100.022 71.4202C99.5105 69.6914 102.82 69.5915 101.559 67.9645C101.216 67.4726 101.477 66.5192 100.596 67.2124Z" fill="#3B3B3C" stroke="#3B3B3C" stroke-width="0.125"/>
<path d="M123.974 68.0438C123.14 70.0199 123.997 72.2102 123.7 74.1918C122.797 75.7245 122.139 77.3783 122.045 79.1601C121.544 81.0162 119.29 81.6217 118.92 83.5886C117.575 86.7096 115.328 89.3851 113.272 92.0431C112.464 92.6862 110.349 92.3978 111.616 93.7732C112.192 94.7516 113.418 95.4401 113.127 96.497C116.214 95.2566 117.835 93.9753 120.428 91.9364C123.46 88.8073 126.827 84.9019 126.167 80.2102C125.743 75.5259 125.537 70.8159 124.8 66.1757C124.525 66.7984 124.249 67.4211 123.974 68.0438Z" fill="#383734" stroke="#383734" stroke-width="0.125"/>
<path d="M54.7147 68.874C53.5676 69.1929 52.5413 69.9662 51.2964 69.8618C50.6684 73.7224 52.328 77.4407 53.6962 80.9958C54.9492 84.3681 55.5517 88.5533 58.9142 90.5715C60.414 91.8933 61.9454 93.3122 63.8602 93.9709C66.3555 96.3827 70.183 97.5751 73.4913 96.1642C79.2849 94.5335 85.1086 94.6199 91.0901 94.8757C92.0671 94.5176 94.0474 94.3098 93.2327 92.8698C92.6533 91.4302 94.5655 90.5859 95.0619 89.376C95.5956 88.4549 97.2395 87.6174 95.767 86.7573C94.9367 86.0519 94.1481 84.6235 93.1607 84.5374C91.0292 85.3946 89.1852 87.478 86.7879 87.1774C86.4646 86.1529 87.0329 84.2724 85.3771 84.6702C83.558 85.1688 84.6364 82.7304 82.7902 83.6954C80.7911 84.3051 78.6796 83.5679 76.7095 84.112C75.9256 84.307 75.5179 85.4338 74.6431 84.6543C74.8637 86.8631 72.2852 86.9715 70.8026 87.7103C69.1204 88.0943 67.9505 89.4955 66.3845 90.0263C65.701 90.021 64.5741 90.4005 64.2042 89.9932C64.1664 87.9442 65.6764 86.0709 64.8544 84.0017C63.9803 80.2369 62.774 76.3743 60.4354 73.2465C58.7867 71.5838 57.1754 69.593 54.8905 68.8221L54.7147 68.874Z" fill="#2A2A29" stroke="#2A2A29" stroke-width="0.125"/>
<path d="M100.034 69.5939C98.5484 69.7199 99.3217 72.0402 100.596 71.4049C101.569 70.9252 101.049 69.4978 100.034 69.5939Z" fill="#39393A" stroke="#39393A" stroke-width="0.125"/>
<path d="M5.61437 70.112C3.48735 72.7292 1.24575 75.4403 0.750427 78.8852C3.43579 79.9237 6.03274 81.2607 8.23075 83.1655C9.13243 81.7405 9.86556 79.8356 8.69631 78.3335C7.76372 77.1272 6.00788 76.0467 6.89482 74.2578C7.21013 73.3549 7.13912 72.2194 7.2347 71.3978C10.0173 71.0045 5.91948 69.4756 5.61437 70.112Z" fill="#2F2E2C" stroke="#2F2E2C" stroke-width="0.125"/>
<path d="M51.1955 70.6141C50.8392 71.9659 51.2293 73.4121 51.8841 74.6125C52.8247 72.8722 52.5202 70.7845 51.8965 68.9968C51.6628 69.5359 51.4292 70.075 51.1955 70.6141Z" fill="#37322B" stroke="#37322B" stroke-width="0.125"/>
<path d="M102.854 83.3514C101.212 84.0531 99.663 84.9411 98.1456 85.8763C100.446 85.7018 102.577 86.8409 103.805 88.7617C104.896 90.9423 104.845 88.365 105.064 87.2429C105.422 85.7119 104.421 83.504 102.904 83.3285L102.854 83.3514Z" fill="#4A2D1C" stroke="#4A2D1C" stroke-width="0.125"/>
<path d="M99.6508 84.9871C96.6451 87.0511 94.0954 89.7571 92.2431 92.9017C94.7501 92.9771 97.176 94.016 99.6756 93.716C98.6596 92.5358 96.9861 92.1587 95.8313 91.2861C96.6863 89.5052 98.3823 87.3758 100.555 87.6678C102.11 88.3774 102.817 90.089 103.954 91.2707C104.384 89.927 105.524 88.2659 104.092 87.2052C103.006 85.9861 101.333 84.6298 99.6508 84.9871Z" fill="#6D531F" stroke="#6D531F" stroke-width="0.125"/>
<path d="M93.8959 85.2679C91.7399 85.4938 91.5376 86.1796 93.2905 87.2937C94.5283 88.3836 96.1771 90.1419 95.0406 87.3538C94.6197 86.7828 95.0421 84.5524 93.8959 85.2679Z" fill="#2D2D2C" stroke="#2D2D2C" stroke-width="0.125"/>
<path d="M61.4969 105.599C59.7985 105.581 60.6975 108.315 62.0587 107.319C62.7986 106.83 62.3682 105.575 61.4969 105.599Z" fill="#2D2D2C" stroke="#2D2D2C" stroke-width="0.125"/>
<path d="M60.0755 105.776C58.5229 105.83 59.2075 108.11 60.5581 107.625C61.769 107.282 61.2178 105.651 60.0755 105.776Z" fill="#2D2D2C" stroke="#2D2D2C" stroke-width="0.125"/>
<path d="M99.8409 86.3649C97.0855 86.8208 95.121 89.3504 94.2995 91.8891C96.3045 92.92 98.6756 94.8751 100.978 93.428C102.419 92.618 103.396 91.235 104.572 90.1124C103.282 88.6392 102.137 86.2731 99.8409 86.3649ZM99.4638 89.1565C100.859 88.8726 102.275 90.8199 100.789 91.6891C99.8792 92.1968 98.0106 91.8453 97.7385 90.9279C97.8208 90.0461 98.481 89.076 99.4638 89.1565Z" fill="#9E7E1E" stroke="#9E7E1E" stroke-width="0.125"/>
<path d="M54.1854 87.6217C51.377 87.6252 49.656 90.1327 48.1543 92.1346C46.7419 93.8292 44.2522 95.5599 44.9275 98.1243C45.2841 99.9669 43.9747 101.704 42.7333 102.919C41.0319 103.453 39.2667 103.93 37.7201 104.914C35.4942 105.923 32.7723 105.319 30.7189 106.88C29.2134 107.389 31.2701 108.241 31.9303 108.766C32.996 109.689 34.7579 108.993 35.4536 110.381C36.1421 111.576 37.9746 110.652 39.1621 110.91C40.6874 110.947 42.5233 110.74 43.8863 110.941C43.7626 113.513 42.5356 116.471 44.3832 118.749C45.0179 120.171 46.3259 121.478 48.0085 121.118C49.7981 120.962 51.4666 120.692 52.9952 119.684C56.9094 117.601 61.4776 118.214 65.7028 117.406C68.558 116.836 71.523 117.108 74.3658 116.604C76.1726 115.855 77.4744 112.819 75.4421 111.628C73.2487 110.957 70.4547 111.961 68.694 110.451C68.8235 109.607 70.4732 107.006 68.7857 107.982C66.6539 108.408 66.4857 111.38 64.2201 111.539C60.8152 112.103 57.4268 113.198 53.9423 113.054C53.6527 111.532 53.7484 109.726 55.3284 108.965C57.1054 107.545 59.6143 107.43 61.3571 106.157C62.292 104.844 62.6149 103.224 63.351 101.808C62.1216 101.72 60.8915 101.647 59.6595 101.611C60.799 102.928 58.5366 102.859 57.7465 102.474C56.1616 100.919 57.5728 98.6147 57.609 96.7177C57.688 94.7461 57.5548 92.7666 57.7264 90.8069C57.4291 89.1201 56.0283 87.4694 54.1854 87.6217ZM50.3912 113.138C50.7338 113.616 49.5344 113.649 50.2585 113.143C50.3013 113.131 50.3477 113.127 50.3912 113.138Z" fill="#2A2A28" stroke="#2A2A28" stroke-width="0.125"/>
<path d="M99.2968 87.9469C97.2833 87.9049 95.8386 90.6764 96.8474 92.1794C98.5104 93.2455 101.268 93.784 102.4 91.6885C103.382 89.7041 101.378 87.7241 99.2968 87.9469Z" fill="#C8A61F" stroke="#C8A61F" stroke-width="0.125"/>
<path d="M57.5104 89.6309C57.6601 92.2915 56.9097 95.098 57.8562 97.6287C59.1473 96.2224 58.4266 93.8876 59.3703 92.465C60.7088 92.746 61.831 93.752 63.2754 93.8009C61.7185 91.681 59.6342 90.0176 57.5364 88.4561C57.5278 88.8477 57.5191 89.2393 57.5104 89.6309Z" fill="#8D4F1C" stroke="#8D4F1C" stroke-width="0.125"/>
<path d="M110.97 89.903C109.54 90.0755 110.207 92.3762 111.511 91.6932C112.451 91.2136 112.066 89.7414 110.97 89.903Z" fill="#2E2D29" stroke="#2E2D29" stroke-width="0.125"/>
<path d="M59.365 91.2536C57.5201 91.345 57.8376 93.8121 57.5151 95.1274C57.24 96.538 57.3529 97.9759 57.3971 99.4007C59.2004 99.1706 61.6696 99.4094 62.4387 97.3107C63.0636 95.926 63.2569 94.1229 62.6759 92.7813C61.7304 92.1191 60.5764 91.2814 59.365 91.2536Z" fill="#C98C1A" stroke="#C98C1A" stroke-width="0.125"/>
<path d="M61.6993 93.3307C61.938 94.945 61.8675 97.6541 59.7828 97.935C58.5141 98.4465 58.3796 97.5869 58.5554 96.5153C58.5351 93.4439 57.2384 96.3952 56.8835 97.8114C56.8163 98.8766 54.6603 102.074 56.8847 100.797C59.2894 99.9396 61.6723 99.0452 64.0886 98.2471C64.6735 96.7378 64.5502 94.6652 63.5911 93.4746C62.8265 93.1026 61.1299 90.977 61.6283 92.774L61.6666 93.0737L61.6993 93.3307Z" fill="#A65B17" stroke="#A65B17" stroke-width="0.125"/>
<path d="M62.893 94.2559C63.2743 95.7093 63.419 97.2763 62.6588 98.646C65.0274 97.822 67.7419 98.0736 69.6682 96.2432C67.251 95.3023 64.7943 94.3922 62.6364 92.9206C62.7219 93.3657 62.8075 93.8108 62.893 94.2559Z" fill="#923211" stroke="#923211" stroke-width="0.125"/>
<path d="M83.6659 93.5248C82.0568 93.6288 80.3014 93.3629 78.9235 94.378C81.374 95.4566 84.4337 94.6505 86.903 95.105C86.7092 97.0098 86.1233 99.1322 84.0825 99.7778C82.6104 100.538 81.0068 101.405 79.3631 100.517C77.4318 100.069 75.4394 100.738 73.4972 100.774C72.4637 101.016 71.854 102.405 70.9127 102.454C70.5171 101.482 71.4123 99.6077 69.8435 99.7843C69.2626 99.6231 67.9916 99.3384 68.0526 98.8832C69.3611 97.8058 70.7554 96.8334 71.9235 95.5954C67.9037 96.3951 63.7926 96.7347 59.9557 98.4047C58.3443 99.2258 55.7787 99.0857 55.6494 101.389C57.076 100.925 58.6635 100.213 58.2135 102.278C57.913 104.756 58.7187 103.942 59.7793 102.449C60.9539 101.087 62.3524 99.7929 64.1121 99.2644C64.9217 101.968 66.6702 104.512 68.9861 106.112C71.7713 106.795 74.4059 105.228 77.0831 104.79C76.0847 103.635 77.4055 103.597 78.2632 103.416C79.4666 103.149 80.8069 103.247 81.8054 104.04C85.5881 102.362 89.6565 100.861 92.4066 97.5992C92.9085 96.6626 95.2487 96.1265 94.5001 95.1215C92.9527 92.7977 89.8354 93.9433 87.5566 93.5821C86.2601 93.5437 84.9631 93.5098 83.6659 93.5248Z" fill="#373737" stroke="#373737" stroke-width="0.125"/>
<path d="M80.2617 93.7101C76.7092 94.1559 73.1307 94.816 69.7556 96.0013C68.4241 97.0125 67.1223 98.0622 65.8552 99.1529C66.9235 100.055 68.5068 100.584 69.5915 101.12C69.5665 102.247 69.6722 104.156 71.249 103.693C72.7264 103.33 73.4528 101.401 75.1854 101.855C76.9562 101.642 78.7429 101.327 80.4506 102.047C82.399 102.42 84.1123 101.018 85.7718 100.21C88.0021 98.9175 87.8089 96.0307 88.3652 93.8529C85.6637 93.8204 82.9638 93.6909 80.2617 93.7101Z" fill="#414243" stroke="#414243" stroke-width="0.125"/>
<path d="M106.224 96.0208C104.704 95.7958 105.197 97.8445 104.367 98.705C102.82 100.182 103.019 102.377 102.834 104.315C101.79 106.931 98.7602 107.815 96.1641 107.72C93.3628 108.079 91.0331 109.947 88.2271 110.375C85.1258 111.538 81.3811 110.794 78.75 113.137C77.6324 113.777 76.9989 115.322 75.8569 115.632C73.3295 115.651 70.6516 115.415 68.2306 116.088C66.5486 116.916 70.0579 117.166 70.978 117.091C75.2062 117.161 79.3638 118.084 83.6014 117.752C88.0906 117.745 92.218 115.693 96.3984 114.311C101.057 112.519 105.532 110.132 109.281 106.802C109.387 104.254 109.96 101.504 108.451 99.2319C107.814 98.25 107.275 96.3213 106.224 96.0208Z" fill="#383735" stroke="#383735" stroke-width="0.125"/>
<path d="M61.7088 103.986C60.2192 104.452 61.2131 107.175 62.4812 105.903C63.1655 105.24 62.8308 103.668 61.7088 103.986Z" fill="#2C2C2C" stroke="#2C2C2C" stroke-width="0.125"/>
<path d="M64.0761 105.516C62.604 105.825 61.2216 106.442 59.8247 106.981C61.9426 107.287 64.1425 107.558 65.8499 108.996C65.2037 108.075 65.2709 105.388 64.0761 105.516Z" fill="#2C2C2C" stroke="#2C2C2C" stroke-width="0.125"/>
<path d="M50.0809 112.346C48.4127 112.549 49.6955 115.171 50.9424 114.121C51.6827 113.479 50.9891 112.247 50.0809 112.346Z" fill="#2E2E2A" stroke="#2E2E2A" stroke-width="0.125"/>
</svg>
