<svg width="127" height="122" viewBox="0 0 127 122" fill="none" xmlns="http://www.w3.org/2000/svg">
<path d="M69.4157 0.184705C67.116 0.172801 64.1795 0.968056 63.3149 3.27288C64.0206 7.48461 63.3279 11.9732 65.2964 15.9162C66.4479 16.1965 67.6099 16.4289 68.7719 16.6612C67.9497 15.3788 65.8224 13.5912 67.4159 12.046C70.6494 7.94097 76.3502 7.21922 80.0682 3.67387C80.9296 2.88382 83.5717 1.94953 81.033 1.78985C77.2404 0.81925 73.3446 0.128313 69.4157 0.184705Z" fill="#3D3C3C" stroke="#3D3C3C" stroke-width="0.125"/>
<path d="M80.5568 1.86853C78.0735 3.71296 75.5992 5.58471 72.6975 6.75521C69.935 8.16665 66.694 9.84825 65.628 12.9548C65.4848 14.3445 66.403 16.127 67.7021 16.3876C68.6438 16.5787 70.3275 16.0869 70.846 16.5714C69.9031 19.0892 72.0359 21.1513 72.6323 23.4447C73.7855 26.4333 74.5169 30.0266 77.5822 31.7181C78.9017 32.2658 77.6388 33.8767 78.3623 34.902C79.6385 37.3637 83.0888 36.7575 85.0183 35.4979C86.7881 34.1608 85.9149 30.9908 88.4271 30.4259C91.3442 28.7877 94.9905 29.0234 97.7674 27.1457C98.4959 26.5914 99.0426 25.7705 99.1564 24.8543C100.911 25.0249 101.792 24.6351 100.767 22.9387C101.946 22.5381 102.065 21.6747 101.859 20.5831C101.981 18.1874 102.455 15.5911 101.043 13.4339C100.142 11.4211 97.7374 10.9927 96.15 9.66939C95.0834 9.80532 93.949 8.53626 92.6939 8.94373C89.6666 9.64453 86.4456 9.30432 83.4357 9.78505C84.6363 8.19544 86.6267 7.54644 88.1268 6.30058C88.4087 4.86296 87.5301 4.19117 86.297 3.7684C84.5336 2.89601 82.4503 1.90136 80.5568 1.86853ZM80.66 9.87312C80.582 11.012 80.8617 12.1361 81.1622 13.2255C84.07 13.3923 86.7676 10.2937 89.586 12.0137C92.0699 13.087 94.831 11.5955 97.2977 12.8251C99.4575 13.5353 99.3028 16.0192 99.0785 17.839C99.559 19.5394 97.5909 20.9142 98.3893 22.6133C98.7767 23.425 97.3005 23.429 96.9938 24.1368C95.9067 25.604 94.6799 27.0848 92.7134 27.2009C89.0714 27.8466 84.9047 29.1949 83.2811 32.8365C82.9741 34.0423 81.37 35.0913 80.4801 33.9967C80.8529 32.3613 80.49 30.513 79.2132 29.3491C78.3432 30.3061 78.02 28.6855 77.2341 28.4274C75.3925 27.103 75.3338 24.5036 74.2354 22.6755C73.6388 21.1099 72.5557 19.3603 73.1638 17.6804C74.64 17.3449 75.6478 15.8782 75.4067 14.3885C72.9399 13.662 69.9508 15.2966 67.8673 13.4498C67.0118 12.7902 68.8065 12.8687 69.1201 12.444C70.3177 12.1565 71.1899 10.2801 72.5088 11.2487C73.7082 11.9901 74.9084 10.531 76.2735 10.951C77.7785 11.0777 79.5929 10.9593 80.66 9.87312Z" fill="#4A494B" stroke="#4A494B" stroke-width="0.125"/>
<path d="M52.6329 2.48322C48.5646 2.34922 46.7531 6.67449 43.4337 8.18518C42.2739 8.97025 40.442 8.4983 40.0538 10.1144C38.0481 13.1819 34.0925 14.3987 30.5903 13.5654C28.7609 13.006 27.4424 14.8858 26.0715 15.8645C24.5811 17.1115 23.2777 18.9145 23.8576 20.9465C23.9737 22.6313 25.7221 24.5573 24.1662 25.9674C21.9455 29.0083 18.5998 31.626 17.809 35.4628C17.6442 37.3465 18.128 39.2008 18.4047 41.0495C21.3087 41.0124 23.4041 43.4132 26.0776 43.9364C28.1969 43.9203 30.3442 43.0416 32.331 42.9805C33.2546 43.6591 34.3503 44.3108 35.5451 44.1823C34.985 46.5613 37.106 44.0839 37.5619 44.4859C37.6003 45.5101 39.3495 45.1216 40.2373 45.1781C44.9809 44.7655 48.4383 41.1113 52.3147 38.7913C55.1593 36.6974 58.2822 35.0073 61.5099 33.6156C62.953 32.3568 62.6589 30.0102 64.4632 28.992C65.7759 27.7011 67.1136 26.4279 68.2886 25.0081C68.0753 23.5958 67.6461 22.333 66.3013 21.6334C64.519 20.3663 62.8609 18.6721 60.6154 18.3133C61.7963 20.9334 65.2772 21.9295 65.9231 24.8637C63.2586 27.9734 60.1579 30.7768 56.9641 33.366C52.3549 36.5405 47.7591 40.3317 42.1881 41.6032C38.5239 41.8901 34.9527 40.8974 31.3249 40.7953C29.7834 41.0606 27.9867 41.7976 26.7082 40.4859C25.3786 39.5184 23.3953 39.5051 22.3316 38.2755C21.6494 35.3449 23.4065 32.4181 24.771 29.9562C26.0661 28.0966 26.8769 25.9474 28.0341 24.0341C29.8295 22.4368 32.5887 22.063 33.8055 19.7793C35.3524 17.1117 37.5358 14.8302 40.3813 13.4797C42.1411 12.6092 43.0241 10.2351 45.2854 10.4702C46.6031 10.3469 47.9728 10.7007 48.9804 11.5786C51.0219 9.94011 53.0972 8.10707 55.8482 7.89985C57.0566 7.8627 58.6141 6.90353 59.3992 8.22569C61.4935 10.3256 60.566 7.77056 59.8235 6.3998C58.8416 3.51649 55.4078 2.47647 52.6329 2.48322Z" fill="#4D4E50" stroke="#4D4E50" stroke-width="0.125"/>
<path d="M63.7711 2.6253C61.4313 3.15534 59.172 3.82863 56.8366 4.3966C58.2729 5.834 59.8007 7.28182 60.3793 9.27661C60.8374 10.3413 62.8614 10.4983 61.8899 11.9057C60.4792 14.5241 63.3626 12.6423 64.796 12.4294C65.8144 11.8042 64.8563 9.78409 65.0114 8.56093C64.8629 6.52384 64.6703 4.49024 64.4432 2.46033C64.2191 2.51532 63.9951 2.57031 63.7711 2.6253Z" fill="#452720" stroke="#452720" stroke-width="0.125"/>
<path d="M86.8033 5.0659C87.1426 6.3283 85.214 6.46024 84.5439 7.20942C82.9645 8.13389 81.7896 9.66396 81.4324 11.4706C85.3447 10.3428 89.4963 10.8784 93.4551 10.1103C94.7765 10.402 95.933 11.8118 97.1881 10.4892C94.2877 8.20985 90.5941 6.07089 87.161 4.1976C86.2079 3.42742 86.9534 4.68865 86.8033 5.0659Z" fill="#3C3C3C" stroke="#3C3C3C" stroke-width="0.125"/>
<path d="M111.705 50.4015C110.81 50.601 109.955 50.9405 109.084 51.2229C109.975 51.807 110.833 52.4383 111.726 53.0188C111.767 52.0572 113.985 49.27 111.705 50.4015Z" fill="#3C3C3C" stroke="#3C3C3C" stroke-width="0.125"/>
<path d="M58.1813 5.76809C58.9558 7.76175 60.3323 9.52597 60.9434 11.5499C59.0004 14.3183 55.4757 15.056 52.6482 16.5767C54.6458 17.2493 56.6533 17.8918 58.6788 18.4766C58.371 17.5978 56.7243 16.3754 58.3017 15.9391C59.7396 14.8145 62.3566 15.108 62.8172 12.9618C63.0982 11.7854 64.1174 10.1777 62.5431 9.62301C60.9178 8.87807 61.1129 6.80072 59.7686 5.75106C58.7568 4.85713 57.0247 2.70292 58.1813 5.76809Z" fill="#4E3E3B" stroke="#4E3E3B" stroke-width="0.125"/>
<path d="M58.713 6.21838C55.4993 6.66698 51.9889 7.10175 49.6176 9.56899C48.8345 10.6183 47.8028 9.19278 46.7422 9.3136C45.2466 9.10154 43.7494 9.4535 42.3014 9.79091C42.8689 10.4446 43.831 10.9849 43.1003 11.8305C42.7868 12.4078 43.1252 13.4625 42.1609 13.0364C38.3888 12.825 35.0697 15.906 34.0953 19.383C35.8308 21.2011 38.4632 19.8856 40.291 18.9638C41.0054 18.2777 42.1191 19.5883 41.0398 19.9913C37.7647 23.1336 33.6903 25.3593 30.6841 28.7996C27.98 31.0869 24.4871 33.665 24.6303 37.6114C25.1774 37.9587 26.6061 37.2269 27.4393 36.7784C30.3764 34.8395 32.5566 31.995 35.292 29.7966C36.5404 28.6601 37.7802 27.4616 39.0324 26.3619C40.8879 27.5077 43.212 27.7322 45.293 27.5896C45.4404 29.1108 43.8745 30.1203 42.7722 30.9132C41.2524 31.8622 39.6363 32.6752 37.798 32.4514C35.0029 32.7343 33.0662 35.0722 30.4185 35.8085C28.8996 36.3011 28.5504 38.415 29.8816 39.3182C31.2046 40.8699 33.3617 41.001 35.1474 40.2669C36.7801 39.4581 38.3157 40.9569 39.9895 40.3697C40.8377 40.3042 41.8098 39.3275 42.2129 40.5135C42.8774 41.6761 44.1222 41.8391 45.2889 41.3049C48.8361 39.9482 51.8907 37.5766 55.073 35.5526C58.1531 33.3229 61.471 31.5125 64.0267 28.6554C65.0596 27.3196 67.4096 26.257 67.0755 24.2977C66.0861 21.6541 63.629 19.8843 61.4273 18.3028C59.7032 17.3888 57.769 17.0006 55.9302 16.3882C58.2918 15.309 61.2826 14.0845 62.1944 11.5188C61.6549 9.50555 60.6156 7.53385 59.0175 6.16437L58.72 6.21713L58.713 6.21838ZM59.9816 24.6822C61.092 24.6294 62.1885 25.165 62.7963 26.0995C64.4615 24.9478 64.6459 25.7307 63.2668 26.8721C61.1243 29.2 58.6051 31.4848 55.3974 32.1373C53.7779 35.1185 49.7565 35.214 47.7991 37.9209C46.9128 38.7339 45.6121 39.8243 44.448 39.6417C44.0589 38.1893 45.2799 36.7043 44.3123 35.3288C44.0524 34.1496 45.6954 33.4384 46.1774 32.5034C48.1558 30.3313 49.9751 27.7432 52.974 26.9232C55.1729 26.3428 57.3722 25.1818 59.6577 24.6975C59.7654 24.6824 59.8735 24.6904 59.9816 24.6822Z" fill="#5B5B5F" stroke="#5B5B5F" stroke-width="0.125"/>
<path d="M70.5651 11.8252C70.6409 13.1549 71.676 14.124 72.9773 14.2922C73.9965 14.6908 75.1084 15.2531 75.697 16.168C74.6784 17.614 72.1229 18.5576 72.7018 20.6946C73.8167 23.6846 75.0426 26.9961 77.718 28.9605C79.6259 30.1308 82.4502 29.7681 83.7414 31.9394C85.6308 31.2982 86.2145 28.9384 88.3663 28.8578C90.7676 27.9572 93.6028 27.547 95.6136 26.0015C96.3547 24.813 97.6319 24.0847 98.9717 23.7622C98.3622 22.4372 97.9663 20.4043 96.1122 20.5373C95.1663 20.4461 94.2168 20.5824 93.2893 20.7604C93.6837 19.096 91.6402 19.3318 90.6729 18.6333C88.7353 17.6735 87.4707 15.5075 85.1511 15.2369C84.4109 14.9855 82.9661 15.4878 83.5596 14.3046C83.7186 13.2289 82.7876 12.4358 81.821 13.1835C80.6843 13.5245 79.1327 14.4033 78.5475 12.8746C78.0659 11.6187 76.9286 13.2998 75.9979 12.4575C74.9306 11.7433 73.6776 11.6463 72.4705 11.5704C71.4921 11.3854 69.6437 9.7284 70.5651 11.8252ZM74.5646 19.6854C75.6058 19.9345 76.4144 21.1631 77.279 21.1928C80.0613 19.6197 82.9367 22.1387 85.8822 21.7526C87.4139 22.0286 89.0512 22.8025 90.4635 23.0407C90.4835 24.2897 88.9059 25.0604 88.8247 25.9868C89.3277 26.8767 87.3103 26.7512 86.6687 27.2103C85.0668 27.746 83.4083 28.9851 81.7115 27.9812C79.8422 27.138 77.6472 26.5726 76.6812 24.5519C75.8014 22.9987 74.4657 21.4961 74.4212 19.6296L74.5646 19.6854Z" fill="#5B5B5F" stroke="#5B5B5F" stroke-width="0.125"/>
<path d="M82.4485 7.11314C80.3611 6.57452 80.4372 9.43521 78.5972 9.6506C76.8576 10.0219 74.9098 9.32767 73.2936 10.28C72.1658 9.50521 70.6857 9.60119 69.7792 10.6657C68.5476 11.5225 67.1145 12.0426 65.6463 12.3278C66.4942 14.2313 68.2954 15.795 70.4984 15.5463C71.6779 15.5996 73.1174 15.2313 74.0991 15.5087C73.6816 16.8287 71.4022 16.1923 71.8579 17.8601C71.4105 20.9067 73.6107 23.5087 74.4367 26.2997C74.7449 28.055 76.1341 29.1084 77.381 30.1963C77.6299 31.7591 78.4701 30.7495 79.1082 31.2279C79.6286 32.3621 79.353 33.6624 79.0574 34.8186C80.4635 35.6722 82.7432 36.2118 83.703 34.4411C84.7608 32.466 86.0744 30.5263 88.2843 29.6944C91.0953 28.2827 95.1554 28.9034 97.0675 25.9504C97.7493 24.963 98.6713 23.9907 99.9836 24.0182C99.6456 22.6564 99.026 21.2592 100.03 20.0553C100.63 18.5469 100.186 16.8876 100.383 15.3052C100.384 12.6625 97.6144 11.2178 95.2647 11.1202C93.3243 10.8372 91.1618 11.7955 89.3718 10.5806C86.86 9.39922 84.3011 11.6666 82.0526 11.8311C81.507 10.1684 81.9635 8.15708 83.8216 7.5467C86.0384 6.43263 82.9566 7.30712 82.4485 7.11314ZM72.3365 12.7875C73.5044 12.8601 74.6515 12.958 75.6869 13.6323C76.6112 14.2533 77.9107 13.2773 78.3325 14.5628C79.1982 15.6212 80.8917 14.6273 82.0361 14.3809C82.7761 14.0739 81.8122 15.4865 82.0564 15.9069C82.7064 16.6284 84.5272 16.0312 85.6267 16.6248C87.6965 17.285 88.7559 19.5447 90.9302 20.0582C92.4664 20.0136 91.8173 21.8219 92.4268 22.1531C93.8379 22.0084 95.7235 21.1785 96.9259 22.1401C97.6868 22.9966 96.9135 23.2825 96.173 23.7018C95.0383 24.5433 94.4315 25.9172 92.8717 26.1028C90.528 27.1539 87.7025 27.4199 85.5604 28.7627C84.9651 29.2697 84.2648 31.0265 83.4759 29.9298C81.4553 28.3507 78.2843 28.9325 76.8671 26.4917C75.6241 24.4274 74.1557 22.2302 73.8601 19.8134C74.7916 18.5196 76.2494 17.5832 77.2182 16.2702C76.2698 14.341 74.2139 13.3525 72.2468 12.7599L72.3365 12.7875Z" fill="#535356" stroke="#535356" stroke-width="0.125"/>
<path d="M40.9383 8.98306C36.2463 9.56348 31.6557 11.3095 28.0146 14.3568C31.5372 15.0843 35.6342 15.6379 38.6601 13.2055C40.2596 12.1871 41.364 10.5731 42.0394 8.83159C41.6724 8.88208 41.3053 8.93257 40.9383 8.98306Z" fill="#3E3E3D" stroke="#3E3E3D" stroke-width="0.125"/>
<path d="M43.134 9.64179C41.4535 10.781 40.2741 12.523 38.3385 13.2918C35.3546 14.7764 33.8538 17.8372 31.8453 20.2566C29.9987 21.7585 26.9234 22.2355 26.1931 24.8572C24.3026 29.0568 20.713 32.9054 20.9521 37.804C21.113 40.1635 23.8912 40.3259 25.5552 41.2251C26.837 42.2578 28.4928 42.8514 30.117 42.259C32.8911 41.4968 35.7119 42.7632 38.5243 42.7381C41.5215 43.1681 44.5347 42.5423 47.1801 41.1041C52.0605 38.4349 56.7834 35.363 60.8962 31.6095C62.7662 29.5324 60.0712 30.5325 59.029 31.3738C54.5382 34.3331 50.2499 37.696 45.3697 40.0051C44.4525 40.4896 43.4135 40.601 42.9575 39.5037C42.4517 38.5161 41.793 38.1583 40.8132 38.8737C39.4242 39.6936 37.9853 39.0505 36.6113 38.7968C34.714 38.8275 32.5568 40.4108 30.9726 38.6594C29.8806 38.2139 30.1595 36.8784 31.2795 36.7425C34.0617 35.9486 36.1349 33.1946 39.2501 33.6297C41.2895 33.4603 43.1011 32.1587 44.7159 30.9842C45.751 29.9804 46.8957 28.7637 46.4779 27.178C46.8925 25.5265 45.0113 26.6172 44.0515 26.4195C42.2178 26.449 40.3554 25.9505 38.8866 24.8308C35.0724 28.2932 31.3484 31.8635 27.5178 35.2924C27.0478 35.5829 25.5077 36.7774 26.2037 35.4656C27.6954 32.05 31.3152 30.3548 33.6268 27.5667C36.4597 24.8295 40.2403 23.0403 42.6501 19.8997C43.1061 18.3919 41.1402 16.876 39.826 17.8542C38.4597 18.3263 37.0391 19.525 35.528 18.9398C36.753 15.5724 40.8695 13.0094 44.3289 14.8336C43.8485 13.5115 44.006 12.001 45.0175 10.9622C44.4257 10.6285 43.8297 8.93641 43.134 9.64179Z" fill="#545458" stroke="#545458" stroke-width="0.125"/>
<path d="M96.7754 11.5105C97.5685 12.2665 100.569 13.1928 98.9135 11.4501C98.24 10.693 94.7456 9.32036 96.7754 11.5105Z" fill="#424240" stroke="#424240" stroke-width="0.125"/>
<path d="M64.4668 11.2728C63.1449 11.6488 61.6538 11.812 61.3046 13.3177C59.4353 14.0429 57.4471 14.774 55.9072 16.1563C56.4029 17.7151 57.609 18.344 59.1243 18.6298C60.2278 19.3003 60.756 18.9281 60.5969 17.6922C60.2081 15.9492 62.5369 15.7492 63.7309 15.6954C64.5825 15.3478 67.045 16.969 66.5282 15.742C65.9061 14.2426 65.3071 12.713 65.1135 11.0902C64.8979 11.151 64.6823 11.2119 64.4668 11.2728Z" fill="#792C18" stroke="#792C18" stroke-width="0.125"/>
<path d="M99.2307 12.8996C100.994 14.809 101.009 17.46 100.653 19.8586C100.62 20.8069 100.998 21.8754 99.7051 22.1512C99.8733 23.6174 99.292 23.6893 97.9846 24.0211C98.0947 26.7802 94.8504 27.1808 92.8071 27.6678C90.4716 28.3653 87.8311 28.9195 86.0155 30.585C84.9768 32.1343 85.3329 34.8638 82.9171 35.1309C81.4699 35.8369 78.8635 35.2307 79.3542 33.2C79.5937 32.2316 79.6267 31.3076 78.5286 30.9136C75.3565 29.2307 74.7883 25.4742 73.5528 22.4571C73.0442 20.4728 71.1269 18.7176 72.0963 16.5447C73.2873 14.4032 70.5638 15.3757 69.2723 15.1931C67.8811 14.48 66.4621 16.4293 68.2279 16.6912C69.2045 16.7795 70.1349 17.2224 70.1524 18.3488C71.4796 21.8297 72.7929 25.2789 73.7981 28.8389C74.7782 30.723 77.7936 31.7379 76.9715 34.2491C77.0766 36.7042 79.8215 38.4614 82.1417 37.6649C84.5315 37.1957 87.535 36.2327 88.0144 33.4827C88.1541 31.3546 90.4707 31.018 92.009 30.2383C95.3253 28.5883 99.8907 29.3321 102.482 26.2768C103.769 24.8029 106.557 24.3279 106.496 21.9704C106.845 19.7511 104.361 18.6883 103.908 16.6929C103.008 14.7243 101.937 12.6719 99.7508 11.9009C98.305 11.4497 97.7716 10.4815 99.2307 12.8996Z" fill="#3E3E3F" stroke="#3E3E3F" stroke-width="0.125"/>
<path d="M101.012 14.0368C102.573 16.1588 103.188 18.836 105.1 20.7152C105.65 21.8285 105.161 23.285 103.908 23.6753C101.952 24.7549 100.763 26.912 98.4335 27.3091C95.7006 28.0552 92.8219 28.2098 90.3194 29.6654C88.943 30.2458 87.3388 30.8591 87.057 32.5107C86.808 34.1656 85.7021 35.4828 84.0476 35.8924C82.2534 36.5918 79.5574 37.2864 78.455 35.1738C77.8719 33.9389 78.7728 32.3564 77.646 31.2472C76.4778 29.7951 74.5297 28.8214 74.4248 26.7453C73.3974 23.2639 72.0293 19.8617 70.6961 16.5033C69.9404 15.5701 68.589 15.6898 67.5841 15.2251C67.2826 16.6989 67.071 18.1881 66.8807 19.6795C68.0432 19.3947 69.5296 18.3872 69.8712 20.0406C71.4395 22.9596 70.5137 26.7466 72.8735 29.3297C73.9744 30.713 75.9112 31.8135 75.504 33.864C75.7884 35.2578 75.1126 35.6912 73.9622 34.72C73.1851 34.0434 70.8041 32.3529 71.9048 34.4176C72.5562 35.4787 73.5124 36.3675 74.3221 37.3308C72.1894 37.1434 70.0315 37.4614 67.9995 38.1122C69.2263 35.5329 67.3496 37.3157 66.2674 38.2866C63.1069 40.591 58.9356 41.1336 56.0376 43.8823C53.2885 46.0901 51.5398 49.2016 49.5675 52.0337C48.7661 52.6887 47.7353 52.9793 46.8791 53.5601C47.8379 53.911 49.474 53.2757 49.4867 54.7314C50.0215 56.1736 51.2355 57.2962 52.7515 57.6546C51.2853 61.2055 51.0299 65.0407 51.1346 68.836C50.9715 70.0673 51.4115 73.3868 52.2785 70.651C52.7846 69.4032 52.0143 67.3132 53.8514 67.1569C53.0529 68.7985 55.5528 67.3496 56.4949 67.5462C58.29 68.6822 59.1221 70.8937 60.6561 72.3592C62.1219 71.7471 62.3455 70.6666 61.7929 69.2299C61.7716 68.3549 63.3274 69.722 63.4931 70.2944C64.1313 71.3844 63.38 73.1153 64.2057 73.054C63.7344 73.8311 63.3452 74.6526 62.9532 75.4709C64.8172 75.0096 63.5852 76.4588 64.794 77.4557C65.7475 79.5199 67.918 81.1207 70.0577 81.3643C71.3837 80.0411 72.3913 81.9881 73.6559 82.4502C75.3688 83.894 73.0595 80.212 74.2165 80.5969C76.429 81.0538 78.5342 79.9638 80.6111 79.3928C81.0943 80.6685 82.0091 82.7116 83.7207 81.8762C84.7104 81.5793 85.6044 81.0788 86.5607 80.7149C87.0767 82.3913 88.6067 83.5836 90.1389 84.382C92.6379 84.8304 94.8517 81.9964 97.3177 83.3258C98.3681 83.5547 97.3798 85.1734 97.2133 85.7552C96.6762 86.6168 94.8702 89.1986 96.9235 87.8832C99.2675 86.1685 101.592 84.312 104.423 83.3945C104.939 77.3425 105.637 71.1815 105.109 65.1453C104.458 63.009 103.89 65.9828 103.905 66.9672C104.078 67.5498 103.659 68.8521 102.928 68.1685C101.491 67.4541 102.392 65.3477 101.532 64.5615C100.646 64.5442 99.8687 64.2613 99.9401 63.2339C99.9786 62.0949 99.1546 61.7844 98.1568 61.6704C96.3082 61.3392 97.472 59.3475 97.7792 58.2288C96.2004 55.7874 94.864 53.1884 93.0763 50.8835C91.4301 53.0449 92.3192 55.9275 91.076 58.2364C90.3345 61.1375 91.6614 64.0325 92.9311 66.578C95.1373 65.6938 93.0903 67.8471 92.799 68.6979C91.5635 71.1461 88.387 71.9276 87.4205 74.6079C86.841 76.2564 85.2135 77.3065 83.7915 77.996C83.0398 75.8183 85.4835 74.9328 86.5826 73.5511C88.4399 71.5606 90.7721 69.7944 91.3875 66.9784C88.8867 67.9025 87.0545 69.9028 84.8012 71.1527C83.0643 72.9395 80.4699 73.3786 78.4597 74.7646C79.2315 76.6451 76.7798 75.3028 75.8061 75.4057C76.2506 76.4566 76.6005 77.3832 75.1075 76.9445C75.2831 75.7014 73.8352 74.7909 73.0293 73.8135C73.1812 72.502 73.84 70.7993 71.826 71.2933C70.7176 71.2434 69.1289 70.8835 69.925 72.5315C69.8317 73.1829 70.7788 75.4443 69.7851 74.8679C66.544 73.3232 65.5545 69.5383 65.1695 66.2792C63.294 64.3844 61.4315 62.3964 58.9071 61.3798C57.9495 60.374 58.499 58.5688 58.7065 57.3147C59.6855 53.8041 63.3699 52.2398 66.0812 50.2402C69.4988 48.2329 73.2802 47.0146 76.9001 45.4408C79.898 44.1838 83.1368 43.5796 86.2058 42.6361C87.6705 41.8454 85.0111 41.8521 87.5582 41.6854C92.1618 40.6056 96.8746 41.4135 101.481 41.5763C103.714 41.1259 100.664 40.3894 99.822 39.9716C98.8877 39.6317 99.1998 39.3207 100.017 39.1726C102.408 38.6039 104.716 37.6301 106.382 35.7726C108.402 33.8949 109.832 31.4737 111.937 29.6808C112.57 30.7534 113.441 33.9167 113.534 31.0264C114.166 27.576 115.035 23.3607 112.278 20.5431C109.395 17.486 105.253 16.0664 102.072 13.3576C100.593 12.7409 99.4502 11.3281 101.012 14.0368ZM77.4636 40.5951C78.6296 41.1871 79.9116 41.5202 81.2017 41.71C80.0775 41.6132 78.3895 42.22 77.607 41.7183C77.5627 41.3529 77.4903 40.9352 77.4636 40.5951ZM73.9374 41.6642C74.684 41.663 75.9303 42.3488 75.8474 42.9353C71.1594 45.6804 65.9873 47.6379 61.7968 51.1846C59.0764 52.9121 56.8833 55.6461 53.7458 56.6078C54.0434 53.5955 55.4551 50.4381 58.4206 49.1957C61.5547 47.2383 64.8666 45.6105 68.2839 44.15C68.5044 42.9669 70.2474 42.0716 71.665 41.9983C72.4283 41.926 73.1752 41.7186 73.9374 41.6642ZM100.107 65.1677C100.822 64.1652 99.291 64.1536 100.107 65.1677ZM100.308 68.1626C100.719 68.0153 100.194 68.0545 100.308 68.1626ZM99.0608 68.8613C98.8536 70.0789 98.8374 71.5301 98.4601 72.5812C98.1437 71.3832 97.9753 69.4916 99.0797 68.6922L99.0608 68.8613ZM100.262 69.7472C100.85 70.6307 99.1455 70.1248 100.262 69.7472ZM97.3732 73.2381C97.8846 76.1616 96.0471 78.915 94.3479 81.1036C93.2856 81.5793 91.6628 82.5919 90.9155 81.2069C89.3858 80.4895 91.083 79.3906 91.5772 78.5862C92.8693 76.8025 95.0861 75.9381 96.3825 74.2168C96.6633 73.7589 96.821 72.1152 97.3732 73.2381Z" fill="#363636" stroke="#363636" stroke-width="0.125"/>
<path d="M63.3846 14.4977C61.7246 14.5859 59.1739 15.2183 59.3868 17.3499C59.0497 18.5815 59.7967 18.9897 60.8667 19.3678C63.3762 20.7386 65.5537 22.5715 67.7706 24.3717C67.9148 21.3094 68.1438 18.2279 68.8527 15.2369C66.9767 15.3487 65.2579 14.3756 63.3846 14.4977Z" fill="#A63010" stroke="#A63010" stroke-width="0.125"/>
<path d="M69.3903 17.674C68.1668 18.0722 66.468 18.0893 66.8855 19.848C66.5465 21.9972 66.45 24.238 67.6567 26.16C69.0459 29.9079 70.3151 34.4887 74.3227 36.2547C75.1564 36.4887 77.0756 37.2958 76.6346 35.7638C76.8016 33.7296 76.9819 31.3204 75.1096 29.9659C73.0004 28.27 72.1309 25.6309 72.0722 23.0131C71.715 21.0565 70.9515 19.2036 69.8494 17.5383L69.5598 17.6239L69.3903 17.674Z" fill="#2C2C2A" stroke="#2C2C2A" stroke-width="0.125"/>
<path d="M24.0535 18.2241C23.1789 19.6874 22.3579 21.1814 21.4949 22.6514C22.5747 24.1585 22.9784 26.3873 21.3701 27.7025C18.7383 31.3167 15.4206 35.1794 15.4514 39.8935C15.5505 42.2292 18.4668 42.5756 19.8817 43.9043C19.8823 45.0524 19.4004 45.5502 21.3616 45.1047C23.9909 45.2916 26.6098 45.105 29.141 44.325C30.6142 44.1113 32.9347 43.2777 33.6203 45.1922C34.0543 46.686 35.8256 46.0586 37.0067 46.583C38.6453 47.1751 40.4 47.44 41.9786 46.5366C46.6964 44.3414 50.0699 40.0792 54.84 37.9359C57.2212 36.4916 59.7487 35.2801 62.5673 35.037C63.6453 34.807 65.0707 34.6625 64.7905 33.2759C64.9737 32.1869 65.0487 30.8979 64.2242 30.0325C65.4523 28.1854 68.4596 27.2084 68.2447 24.5667C68.7358 21.9363 67.2016 24.6098 66.368 25.368C64.6056 27.4783 61.8327 28.9807 61.2957 31.8848C60.6005 33.3892 58.5632 33.2987 57.3393 34.2321C52.5322 36.7765 48.4352 40.3449 43.7004 42.9729C42.221 43.6489 40.2767 44.2707 38.7875 43.8735C39.3724 41.5759 37.9808 42.5605 36.6987 43.3921C36.9317 41.8997 35.3156 43.5107 34.493 42.852C33.253 42.3802 32.3643 40.9962 30.9403 41.8795C28.6811 42.2651 26.158 43.4882 24.1042 41.8539C22.6374 41.0434 21.1339 40.1837 19.4456 39.9481C18.9546 37.5694 18.4962 34.8635 20.2133 32.8365C21.9021 30.0537 24.6921 27.9231 26.1187 25.058C25.9065 22.7105 24.393 20.5103 25.1763 18.1066C25.6892 15.9918 24.695 17.8456 24.0535 18.2241Z" fill="#444546" stroke="#444546" stroke-width="0.125"/>
<path d="M73.3473 18.6985C72.7149 21.5065 74.9229 23.8982 76.3112 26.1089C77.6732 28.0297 80.1185 28.5209 82.1588 29.409C84.523 30.1586 86.5211 28.1446 88.7664 27.7904C90.7765 27.607 90.6012 26.9375 90.4068 25.6874C91.4198 24.654 91.9606 23.1429 91.5516 21.7221C89.0908 22.0404 86.9778 20.164 84.4967 20.5103C82.0876 20.149 79.5081 18.7868 77.1261 19.8357C76.0867 18.9618 74.818 18.3966 73.4972 18.0955C73.4472 18.2965 73.3973 18.4975 73.3473 18.6985Z" fill="#666366" stroke="#666366" stroke-width="0.125"/>
<path d="M21.6979 22.3074C20.508 24.2681 18.4773 25.5775 17.4824 27.6448C18.7522 27.0288 19.4074 27.0542 19.0298 28.4495C18.8169 31.0556 16.5976 32.8492 15.5728 35.1503C14.6672 37.139 12.9943 38.9876 12.923 41.2403C13.116 43.4024 15.4572 44.12 16.9832 45.1164C17.9381 46.3116 19.1639 47.4376 20.8246 47.2318C23.3818 46.8772 25.912 46.4723 28.4926 46.4574C29.469 46.5182 30.3512 45.7263 31.2948 46.0029C29.0716 47.0158 26.3928 47.9634 25.594 50.5481C24.6918 52.2776 23.7088 54.104 26.102 52.0506C30.2096 49.1615 35.4689 49.6528 40.0768 48.2962C46.5711 45.5741 51.0944 39.4876 57.8479 37.3179C60.8542 36.4547 64.8695 36.3819 66.617 33.3638C67.9006 31.0632 67.6892 28.2752 68.8734 25.9381C68.424 24.8147 67.5498 24.3737 66.6111 23.5547C66.4638 24.9156 67.3919 25.868 65.9384 26.7565C64.7102 27.7731 63.1974 28.7148 62.7892 30.3683C63.994 30.9985 63.7383 32.5124 63.5102 33.5645C60.7925 34.1807 57.9307 34.496 55.5934 36.1667C51.2532 38.1814 47.6193 41.2934 43.8326 44.1401C42.0389 45.3223 39.8528 46.562 37.7055 45.5214C36.7833 45.2447 35.7742 45.1033 34.8629 44.9391C34.3203 43.552 32.9985 42.4689 31.4317 42.7915C28.2807 42.9978 25.2898 44.4052 22.0814 43.8882C21.1232 43.4772 19.7815 42.2462 18.5221 41.6057C17.3613 41.1873 16.2454 40.2608 16.6823 38.9319C17.3245 34.2123 20.8802 30.698 23.4038 26.8944C24.1993 25.0643 23.1789 23.1057 22.2608 21.5342C22.0732 21.7919 21.8855 22.0497 21.6979 22.3074Z" fill="#3D3E3E" stroke="#3D3E3E" stroke-width="0.125"/>
<path d="M59.9427 23.2585C59.4875 24.4506 59.427 23.203 58.7077 23.4047C55.8209 24.5411 52.7058 25.2305 49.9581 26.7588C47.371 28.4421 45.6744 31.1333 43.5716 33.3376C42.4257 34.2633 42.8498 35.7278 43.2827 36.8664C42.9167 38.183 42.5017 40.2637 43.8196 41.1552C46.7316 41.4726 48.666 38.8721 50.6898 37.2774C52.7374 36.1575 55.0879 35.2172 56.4926 33.3221C60.6154 32.1221 63.6572 28.7628 66.2553 25.5652C66.3954 24.5417 65.0392 23.9898 64.2054 23.8591C63.5467 24.0653 63.017 24.5753 62.4658 23.8844C61.7088 23.4361 60.8189 23.2416 59.9427 23.2585Z" fill="#6B6669" stroke="#6B6669" stroke-width="0.125"/>
<path d="M59.7668 23.4851C57.3549 23.7367 55.2409 25.1323 52.8891 25.6758C50.1129 26.4627 47.9341 28.4118 46.2301 30.6595C45.2166 32.0679 43.4101 33.1491 43.0207 34.909C43.093 35.9284 43.8356 36.8491 43.2579 37.8704C43.0753 38.9728 42.9886 41.1826 44.5059 40.9556C47.8858 40.7181 49.4157 37.076 52.4592 36.0783C53.9832 35.4446 55.3605 34.3824 56.3468 33.1401C60.6333 31.9654 63.5537 28.3562 66.3981 25.2083C65.3045 24.6071 64.2395 23.4694 63.0884 24.6112C62.2172 23.7656 60.9611 23.4234 59.7668 23.4851Z" fill="#6B6669" stroke="#6B6669" stroke-width="0.125"/>
<path d="M67.6643 25.6786C66.2403 28.3953 66.9975 32.2388 64.2384 34.1569C60.8319 35.992 56.6163 35.6552 53.4136 37.9854C48.3454 40.9165 44.3063 45.5261 38.6978 47.4825C34.8502 48.1698 30.8029 48.3087 27.221 50.0229C28.7444 47.7835 31.8241 47.4994 33.9171 45.9384C32.5418 45.2086 30.9132 44.1695 29.3635 45.0865C26.6312 45.4605 23.8052 45.3864 21.13 46.0093C18.8855 46.517 18.1666 43.7794 16.2386 43.2641C14.6763 42.7912 13.3489 40.9587 14.648 39.4681C16.058 36.3153 18.1113 33.5055 19.7991 30.5222C20.466 28.7158 20.251 26.7625 20.4735 24.8895C15.7955 27.6166 11.8166 31.4257 8.21186 35.4075C6.51225 37.332 5.4168 39.5862 4.85297 42.0826C3.8959 45.0397 4.29875 48.2218 3.7822 51.2599C4.53638 50.7904 5.17065 47.9325 6.07344 49.3536C7.21086 51.2768 7.72288 54.2691 10.3933 54.6563C12.0336 54.8086 13.6409 55.3437 15.288 55.0033C16.8396 55.4023 18.4057 56.0465 20.0723 55.7765C22.1746 55.847 24.9461 54.6436 26.5648 56.3742C25.0583 57.6476 22.7331 57.5522 20.9259 58.2738C19.3536 58.7616 17.6112 58.8626 16.3141 59.9713C19.6585 60.6982 23.1265 59.6844 26.4887 59.3103C32.4656 58.6121 38.5261 57.9535 44.13 55.6121C46.0937 54.8823 48.0342 54.093 49.9829 53.3247C48.4499 52.7549 46.3027 51.673 47.0467 49.6571C47.8778 47.1598 50.1702 45.5412 51.6817 43.4596C55.6108 39.3314 61.3921 37.2498 67.0454 37.248C67.8752 39.5023 68.3674 37.292 68.9068 36.1174C69.5388 34.6234 69.9194 33.0304 70.0364 31.414C71.3226 32.495 70.2794 29.4272 69.8907 28.7039C69.3669 27.2547 68.8296 25.8107 68.2597 24.3787C68.0613 24.812 67.8628 25.2453 67.6643 25.6786Z" fill="#383736" stroke="#383736" stroke-width="0.125"/>
<path d="M69.0138 29.8118C68.8262 31.4738 68.4958 33.1328 68.7282 34.8074C69.5736 34.266 69.7319 31.8567 70.9074 33.1714C73.2126 34.9932 72.1883 33.3352 71.2502 31.7668C70.6069 30.4717 69.9366 29.1904 69.2534 27.9154C69.1735 28.5475 69.0937 29.1797 69.0138 29.8118Z" fill="#C88D1B" stroke="#C88D1B" stroke-width="0.125"/>
<path d="M69.3077 31.5701C68.1353 33.6931 67.1428 36.8644 69.3519 38.6941C70.609 38.9857 72.2005 38.268 73.6187 38.488C75.0182 38.517 76.36 38.951 77.7156 39.2465C75.3639 36.8782 73.3333 34.1557 70.9982 31.815C70.3988 31.6421 69.4918 30.3519 69.3077 31.5701Z" fill="#ECC21F" stroke="#ECC21F" stroke-width="0.125"/>
<path d="M113.944 34.164C112.194 34.0399 111.633 36.3233 110.472 37.3612C109.03 39.6102 106.99 41.5006 105.875 43.941C105.547 46.1575 108.192 47.327 109.399 48.8269C109.867 49.8739 110.871 51.6449 111.639 50.0763C111.839 47.6797 111.705 44.9965 113.655 43.2066C115.213 41.5022 116.172 39.2817 117.863 37.7218C118.896 37.3615 119.734 35.3351 118.618 34.9067C117.158 34.248 115.525 34.1457 113.944 34.164Z" fill="#404141" stroke="#404141" stroke-width="0.125"/>
<path d="M68.111 34.8568C67.4389 36.5861 66.6122 38.2506 65.9219 39.9728C67.6095 39.489 69.2844 38.9597 70.9941 38.5555C69.2552 37.604 69.1218 35.7013 69.1272 33.9689C69.2905 32.705 68.2844 34.8848 68.111 34.8568Z" fill="#C18E1D" stroke="#C18E1D" stroke-width="0.125"/>
<path d="M117.933 35.3975C117.896 36.8165 116.111 37.106 115.662 38.4076C113.945 41.4118 110.55 43.7842 110.62 47.5503C110.816 49.1441 110.011 47.4782 109.433 47.1525C108.638 46.2627 106.861 45.43 107.119 44.0778C107.994 42.2537 109.8 41.0026 110.273 38.9547C108.71 40.0455 106.948 40.67 105.032 40.7278C101.449 41.674 106.762 41.4844 105.372 42.6114C104.956 43.5795 102.421 44.8329 104.178 45.5077C106.754 46.8624 107.541 49.7181 108.792 52.1194C108.046 53.2212 106.373 54.9714 108.818 53.9159C107.43 55.5985 107.427 56.2196 109.834 55.0916C110.822 54.5492 111.408 57.3358 112.097 55.5604C114.475 52.4809 112.47 48.4088 113.779 45.0413C114.882 44.1133 115.413 42.6848 116.267 41.5803C117.044 40.9991 118.027 40.6993 118.696 39.9716C118.235 41.836 120.553 38.3821 120.975 39.3917C122.387 41.3675 122.033 43.8445 122.545 46.0495C122.959 48.0591 123.686 45.0894 123.707 44.2704C124.014 42.3283 124.6 40.0419 123.002 38.4862C121.708 36.8175 120.67 36.2343 118.876 35.1612C118.815 35.4381 117.994 35.1206 117.933 35.3975Z" fill="#373534" stroke="#373534" stroke-width="0.125"/>
<path d="M66.1136 36.0615C59.3739 36.2625 52.6956 39.4819 48.7886 45.0231C46.9758 46.8008 44.8471 49.4912 46.1292 52.1394C46.9477 53.5059 48.816 54.45 50.1074 53.1504C51.9501 51.3869 52.7973 48.8136 54.6144 46.9928C57.0889 43.8957 60.7391 42.1476 64.383 40.7989C66.0098 39.9873 67.9158 39.0763 68.4468 37.1893C68.0345 35.9567 67.2314 35.9421 66.1136 36.0615Z" fill="#2B2B2A" stroke="#2B2B2A" stroke-width="0.125"/>
<path d="M73.7904 40.4624C71.8646 40.8375 69.5538 40.7213 68.098 42.2566C66.4665 41.0922 67.7721 44.0436 65.8776 43.8935C62.0822 45.7166 58.1165 47.5279 54.9265 50.2747C53.3248 52.3641 52.5349 54.9899 52.4624 57.5994C55.3228 58.5269 57.5608 55.6423 59.6879 54.2848C63.8132 50.9964 68.1925 47.9852 73.0574 45.8559C74.6641 45.0501 76.2356 44.17 77.7179 43.1531C76.8979 41.7529 75.5385 40.4003 73.7904 40.4624Z" fill="#2B2B2A" stroke="#2B2B2A" stroke-width="0.125"/>
<path d="M119.373 36.5488C118.57 38.061 117.766 39.7137 116.039 40.2822C114.399 41.1431 114.266 43.2445 112.803 44.325C111.134 47.463 113.12 51.3235 111.406 54.3933C109.335 53.5292 113.346 51.1903 110.241 52.3479C109.582 51.0823 108.629 48.9232 107.789 47.3122C106.957 45.8746 105.514 44.9544 104.17 44.0461C103.061 45.2677 102.013 46.5413 100.955 47.8059C98.4839 46.4582 100.535 49.7824 100.597 51.0513C102.408 57.6178 104.575 64.2891 104.054 71.2102C103.928 74.9817 103.706 78.8772 103.237 82.5766C100.872 83.0453 103.138 83.6646 103.667 84.8393C104.132 85.9278 104.168 89.1614 104.959 86.4492C105.926 87.1317 105.779 87.8342 104.831 88.505C103.484 89.7983 106.415 88.5842 107.334 88.4788C108.761 87.6824 109.009 90.028 109.918 90.6641C111.279 93.1919 109.607 87.7811 110.676 89.1458C111.036 90.162 112.54 90.9734 113.159 89.6994C114.019 88.7836 113.124 87.2418 113.302 86.401C115.626 86.1667 116.426 83.4675 118.333 82.4481C121.136 80.5927 120.66 76.7177 122.751 74.3307C125.594 69.6135 124.445 63.8359 124.225 58.6633C123.136 53.1334 123.926 47.5132 123.259 41.9461C122.999 40.2452 121.883 38.8472 121.375 37.2228C119.209 39.8585 121.56 34.2995 119.69 37.0483L119.552 36.3343L119.373 36.5488Z" fill="#2A2A28" stroke="#2A2A28" stroke-width="0.125"/>
<path d="M76.0817 39.499C76.4189 40.664 76.1476 42.5644 76.9022 43.2181C79.4429 43.0148 81.9743 42.8851 84.5173 42.6676C83.8899 41.5572 83.3636 40.3138 81.8765 40.5861C79.68 40.3934 77.5731 39.5476 75.8876 38.1246C75.9523 38.5827 76.017 39.0409 76.0817 39.499Z" fill="#D2B123" stroke="#D2B123" stroke-width="0.125"/>
<path d="M111.784 28.2636C107.991 31.0691 106.056 36.2738 101.19 37.5505C99.7478 37.9552 98.3077 38.4326 97.0569 39.2782C98.6375 41.1341 101.028 42.0086 103.447 41.811C105.48 41.9184 107.925 42.0099 109.572 40.611C110.856 38.5874 112.745 36.77 113.882 34.7159C113.585 32.5269 113.981 30.1308 112.564 28.2091C112.424 27.485 112.126 28.0746 111.784 28.2636Z" fill="#2D2B2A" stroke="#2D2B2A" stroke-width="0.125"/>
<path d="M92.8432 39.9264C90.7733 39.9424 88.6996 40.1539 86.6876 40.6485C86.275 42.0232 84.2714 41.1936 83.1292 41.569C80.9756 41.5454 80.8287 42.9648 83.0627 42.8507C86.9756 42.8765 91.1047 42.781 94.6816 44.6941C96.8297 45.6606 98.6474 47.2455 100.285 48.8569C101.897 49.8592 102.474 47.3862 103.555 46.5828C105.138 44.7399 106.765 42.9297 108.194 40.9626C103.072 40.6958 97.9722 39.9878 92.8432 39.9264Z" fill="#973518" stroke="#973518" stroke-width="0.125"/>
<path d="M100.586 40.5948C101.672 41.6014 104.766 41.6679 105.032 40.7278C103.796 39.8768 101.877 39.8608 100.586 40.5948Z" fill="#4B3028" stroke="#4B3028" stroke-width="0.125"/>
<path d="M87.0847 40.5658C85.3492 40.6633 83.6027 40.7024 81.849 40.6832C82.5212 42.1929 83.3963 43.3086 85.1924 42.633C86.7719 43.2774 88.3495 41.4204 87.7512 40.5156C87.529 40.5323 87.3069 40.549 87.0847 40.5658Z" fill="#BD6516" stroke="#BD6516" stroke-width="0.125"/>
<path d="M85.0968 40.6468C84.2173 40.4827 81.1284 41.0587 82.9946 41.7062C84.6246 41.933 86.619 42.1427 88.0754 41.1347C87.1352 40.5183 86.1772 40.5499 85.0968 40.6468Z" fill="#7F4F25" stroke="#7F4F25" stroke-width="0.125"/>
<path d="M86.0586 41.6948C79.4969 42.6146 73.449 45.5576 67.4118 48.1189C64.3484 49.8026 61.3052 51.7328 58.8888 54.2641C57.329 56.3914 56.6315 59.4882 57.6727 61.9164C59.2406 63.1753 61.2984 63.725 62.5579 65.4056C64.049 66.5447 65.1537 68.0733 65.3141 69.9715C65.7621 71.7271 66.7166 73.3096 67.8526 74.7083C70.613 73.5683 70.3222 69.8663 72.8345 68.4902C73.2122 69.8208 73.72 71.4466 75.4067 71.3107C77.437 71.4896 79.3436 70.2271 80.3957 68.566C80.165 70.6235 81.248 69.416 82.0815 68.5678C83.527 67.0652 84.8185 65.1777 86.9543 64.6072C86.4971 63.7258 88.3169 63.9988 88.7239 63.1412C90.4965 60.9219 90.1735 57.8386 91.6348 55.4542C92.3875 53.8102 92.0904 51.1145 94.3886 50.7979C95.47 50.2345 95.1148 52.2716 95.5056 52.8563C96.1087 56.0784 97.1657 59.7601 100.384 61.3112C101.697 58.4714 103.633 55.2086 102.127 52.0536C101.508 49.9967 101.372 47.6187 99.3847 46.3611C95.7612 43.1813 90.8753 41.5202 86.0586 41.6948ZM85.9359 44.355C87.851 44.5711 90.7804 44.043 91.4802 46.4133C92.2167 47.7071 90.4166 46.6787 90.6954 48.1846C90.7381 50.5038 89.2533 52.412 89.1305 54.7097C89.2012 55.7498 88.1856 56.7212 87.4565 55.6802C87.3793 54.605 88.1077 53.1045 87.5561 52.414C84.652 51.5687 85.218 56.0821 82.8044 56.3642C80.4828 55.787 77.7696 54.0408 75.553 55.8681C73.7617 57.153 72.1002 58.6844 70.5097 60.1639C69.1351 62.4082 68.8361 65.1015 67.993 67.5479C67.8829 68.3148 67.9521 69.0908 67.9682 69.8605C66.7804 68.0627 65.5637 66.0174 66.3439 63.7953C66.4708 62.573 67.8395 60.5856 66.1225 59.8815C65.926 58.7312 66.3187 58.1152 64.5824 59.1999C63.8518 57.7716 63.1626 59.2343 62.4275 59.8539C61.7066 60.8039 61.5857 60.2788 61.6672 59.3231C61.2078 56.8284 62.4157 54.1561 64.8609 53.1774C68.6975 51.5836 71.625 48.2818 75.8548 47.586C78.4785 47.0422 80.8931 45.9047 83.2552 44.7107C84.1195 44.4363 85.0323 44.3502 85.9359 44.355Z" fill="#404041" stroke="#404041" stroke-width="0.125"/>
<path d="M85.6745 43.1537C82.3966 42.9414 79.9655 45.5309 76.8555 46.0607C73.7244 46.7611 70.696 47.9155 68.1807 49.9465C65.6282 51.8523 61.6477 52.5503 60.6821 56.0266C60.0928 58.2492 60.7734 60.5674 60.3339 62.8135C61.6352 62.132 62.8235 61.2516 63.8165 60.1704C64.2085 60.8961 65.2468 60.556 65.7814 61.1215C64.9765 63.7178 64.2172 66.8677 66.1741 69.181C67.0406 70.5548 67.7439 72.0195 68.35 73.5235C69.5173 71.5884 68.9654 69.3696 69.2788 67.2861C70.3885 64.9614 70.1072 61.9341 72.2209 60.198C74.0847 58.8878 75.5409 56.6102 77.9021 56.2362C79.8902 56.2321 81.7478 57.9972 83.6659 57.391C85.1394 56.6966 85.9016 55.1842 86.4504 53.7474C86.2377 55.0324 85.8559 56.8094 87.522 57.1703C88.7029 57.6721 89.9005 57.0857 90.0929 55.8052C90.4807 54.1061 90.7573 52.3943 91.5291 50.836C91.7323 50.079 91.7595 49.2918 91.8672 48.5193C93.3272 49.3287 93.0812 48.0094 92.8904 46.9951C92.627 44.8251 90.6882 43.0267 88.4035 43.3199C87.4974 43.2212 86.5869 43.1419 85.6745 43.1537ZM85.5293 46.2407C86.9501 46.2919 88.73 46.3478 89.9448 46.876C89.8013 48.302 89.542 50.2535 88.2354 51.055C85.8658 51.141 83.9718 52.6451 81.8189 53.3811C78.8437 53.8203 75.7336 54.3311 73.3361 56.2814C71.4883 57.4244 70.1312 59.2084 69.1625 61.1197C67.4351 60.3257 68.171 58.0757 68.4769 56.5749C67.6081 55.9909 66.468 55.2706 67.3782 54.1766C69.6309 50.7601 73.4492 48.8136 77.3663 47.9228C80.0432 47.2062 82.6839 46.1034 85.5293 46.2407Z" fill="#48494B" stroke="#48494B" stroke-width="0.125"/>
<path d="M85.167 45.0407C81.4143 45.0507 77.9404 46.6304 74.374 47.5776C70.9655 48.6923 67.7985 50.9602 66.0676 54.1214C65.4986 55.2958 65.8588 56.4963 67.1109 57.0329C66.9293 58.4477 66.4978 60.3368 67.4674 61.3917C68.4489 61.9022 69.8057 63.8336 70.1432 61.853C71.9356 57.9399 75.9793 55.3131 80.2334 54.8806C82.7303 54.866 84.6466 53.1573 86.9372 52.5028C88.3117 52.4459 89.8416 51.9802 90.241 50.4978C90.994 49.0726 91.2542 47.4301 91.1303 45.8339C89.1899 45.3028 87.1821 45.0054 85.167 45.0407ZM85.1782 47.7643C86.4973 47.5952 87.7565 48.2187 87.7407 49.6894C87.8606 50.6481 85.8637 50.5529 85.0931 51.0825C81.6444 52.2173 78.0679 54.5241 74.3528 53.2026C72.6128 52.9803 70.811 54.4838 70.9752 56.2344C70.8035 55.3647 70.2985 54.441 69.6004 53.9905C71.6925 50.9714 75.1137 49.2354 78.6892 48.6815C80.8048 48.0423 82.9727 47.7735 85.1782 47.7643Z" fill="#545355" stroke="#545355" stroke-width="0.125"/>
<path d="M84.8838 46.5666C81.3105 46.5766 77.8159 47.5455 74.4401 48.6103C71.487 49.8311 69.171 52.2018 67.5221 54.8806C68.8992 54.5731 69.7837 55.6039 69.8972 56.8562C69.9228 58.343 70.9286 57.6999 71.7559 57.1708C72.8475 56.782 71.6511 55.0402 73.103 54.631C74.585 54.03 76.1213 55.2291 77.6829 54.7567C81.7751 54.1236 85.4125 51.9542 89.3872 50.8636C88.7981 49.2999 88.7449 46.9586 86.6852 46.7133C86.0963 46.5733 85.4869 46.5488 84.8838 46.5666Z" fill="#5E5B5F" stroke="#5E5B5F" stroke-width="0.125"/>
<path d="M4.93992 47.6122C3.34621 49.6643 2.60293 52.2674 1.78954 54.7103C3.51385 57.9512 6.11779 61.6576 10.1738 61.8055C13.5155 61.7795 16.6067 60.3434 19.8687 59.794C22.2898 58.9146 25.1366 58.8903 27.2924 57.4086C28.4215 56.4065 27.3794 54.9013 26.1565 54.5964C22.8941 53.4935 19.2831 55.6056 16.1212 53.8977C14.6753 53.6224 13.1719 54.1637 11.7835 53.5766C9.70447 53.8413 8.3881 52.0127 7.89118 50.2264C7.41798 48.9466 6.55487 47.7666 5.26505 47.2094L5.07586 47.4438L4.93992 47.6122Z" fill="#2E2D2B" stroke="#2E2D2B" stroke-width="0.125"/>
<path d="M95.1215 49.2972C93.555 49.7401 91.6041 50.2557 91.3509 52.1517C90.7746 54.9058 89.2088 57.3145 88.8502 60.1304C88.574 61.6815 87.5484 63.1677 85.783 63.0384C84.4804 62.9245 85.9447 64.1732 84.6619 64.3564C83.4146 65.1755 82.4915 66.3708 81.4856 67.4481C81.6699 65.9024 79.5116 66.9951 79.3401 67.9771C78.4054 69.4717 76.2777 70.7271 74.6248 69.823C74.1588 68.7779 73.8678 67.6661 73.4181 66.6138C71.6221 67.6657 69.9938 69.0948 69.3814 71.1486C69.0639 71.8276 68.7102 72.6174 68.1181 73.0603C66.432 71.1961 66.6607 68.4993 65.3377 66.4835C64.0238 64.7436 63.4058 64.6198 64.0404 66.9422C64.4534 70.674 66.0758 74.7746 69.8441 76.2576C71.302 77.2416 71.9769 77.0424 71.4783 75.2203C71.3925 74.2985 71.2768 73.3795 71.1363 72.4643C72.8002 72.3318 71.0185 74.9949 72.9791 75.5132C74.653 75.9463 72.8354 78.5577 74.6772 78.1372C75.8394 78.151 76.9542 78.2472 78.1157 78.3735C76.998 76.7163 78.0625 76.7776 79.5266 77.1676C80.7478 77.3475 78.8714 74.9514 80.5851 74.9478C82.5241 74.1334 84.482 73.2083 86.0143 71.7704C86.5647 71.593 88.1871 70.2802 87.0428 71.2954C85.8227 72.9609 83.883 74.0085 82.7607 75.7169C82.181 77.0929 82.7782 78.6013 82.7802 80.0192C85.0931 78.6755 87.8313 77.4453 88.7369 74.6983C90.046 72.2717 93.204 71.4873 94.1526 68.7626C94.8772 67.4408 95.5916 66.1134 96.3512 64.8108C95.1626 64.8065 93.3187 65.9958 93.1194 64.1521C91.9834 61.8482 91.6848 59.1411 92.8627 56.7998C93.1428 55.6446 93.043 54.4379 93.3053 53.2801C94.4011 54.9677 95.4823 56.7453 96.4415 58.4689C95.7579 59.7962 95.4995 61.9347 97.2009 62.598C97.8319 63.008 99.0154 62.6927 98.8271 63.8087C98.925 64.8652 99.635 65.6307 100.727 65.6357C100.586 67.2855 101.476 69.3884 103.309 69.5611C104.773 69.616 105.217 67.9849 105.143 66.8082C105.378 63.8324 104.255 60.9197 103.749 58.0055C103.272 56.1183 102.891 54.1791 101.917 52.4676C101.458 54.8608 101.141 57.4773 99.855 59.5304C96.7589 56.9545 97.1083 52.5404 95.7033 49.0847C95.5094 49.1555 95.3154 49.2263 95.1215 49.2972Z" fill="#3A3B3C" stroke="#3A3B3C" stroke-width="0.125"/>
<path d="M48.7202 52.6149C43.4534 54.5737 38.1922 56.7381 32.5562 57.3713C29.9921 57.7052 33.8494 58.0826 34.4717 59.069C35.2823 60.0798 34.2787 61.2611 33.1457 61.3067C30.534 61.9177 32.6181 62.2579 34.1289 62.446C35.3938 62.4729 36.7043 63.5583 37.7521 63.3779C38.88 62.0334 40.3191 60.8537 42.2064 61.0569C43.7473 60.9168 46.8499 61.1729 43.9054 59.9215C43.3152 59.6434 42.5935 59.4401 43.1263 58.6286C44.1597 56.133 46.6785 54.6605 49.3492 54.4279C51.151 54.8366 50.4934 52.2897 49.1822 52.6167C49.0282 52.6152 48.8742 52.6095 48.7202 52.6149Z" fill="#AD360D" stroke="#AD360D" stroke-width="0.125"/>
<path d="M49.6401 53.1263C47.3455 53.5349 44.872 54.0562 43.3995 56.0313C42.4432 57.1066 41.1124 58.949 42.1403 60.3324C43.3718 61.1107 44.8127 61.5357 46.0778 62.271C45.6954 61.0836 44.1073 59.8054 45.3497 58.5928C46.5402 56.6552 48.7185 55.4415 50.9772 55.2675C50.4855 54.7024 50.6292 52.6513 49.6401 53.1263Z" fill="#BF4E0D" stroke="#BF4E0D" stroke-width="0.125"/>
<path d="M50.0572 54.1978C47.1285 54.6471 44.1706 56.8511 43.619 59.834C43.986 61.9222 46.4629 62.508 47.5866 64.1521C49.555 66.0563 48.8469 63.7845 48.0433 62.5299C47.5883 61.4472 45.7606 60.7866 46.6956 59.4365C47.2006 57.7037 49.104 55.3885 51.0266 56.7631C53.1086 58.0764 52.1863 56.6278 51.2923 55.4442C50.8571 55.0929 50.734 53.8939 50.0572 54.1978Z" fill="#CC7213" stroke="#CC7213" stroke-width="0.125"/>
<path d="M49.6755 55.1224C47.0557 55.3476 45.505 58.1947 45.2157 60.5385C45.4837 62.0157 47.1766 62.671 47.6297 64.0934C48.2234 61.9118 48.3385 59.3697 49.4819 57.4409C50.5593 57.0167 51.7536 56.9775 52.843 56.5679C51.8604 55.9708 50.91 55.0761 49.6755 55.1224Z" fill="#DD9317" stroke="#DD9317" stroke-width="0.125"/>
<path d="M51.7769 63.1127C51.4598 65.2445 50.8028 67.5511 52.2147 69.4534C52.9476 67.3173 52.9581 64.8841 52.7861 62.6875C52.4706 61.1091 52.3422 62.5389 51.7769 63.1127Z" fill="#7F6B2B" stroke="#7F6B2B" stroke-width="0.125"/>
<path d="M51.2238 55.7559C49.8365 55.9878 48.0016 56.2823 47.8486 58.0081C47.4196 59.5812 46.7994 61.262 46.8207 62.8341C47.2962 64.5318 49.7081 61.788 50.0814 63.8093C50.6555 65.2625 51.1097 66.7611 51.7508 68.1902C52.2839 64.7805 52.5873 61.3883 53.8573 58.1742C53.0608 57.3053 52.5685 55.7832 51.2238 55.7559Z" fill="#EEC11F" stroke="#EEC11F" stroke-width="0.125"/>
<path d="M51.6097 57.1321C52.1862 57.8023 53.0334 59.5371 53.5039 59.3025C53.8897 57.9912 54.8974 56.3625 52.7916 56.4006C51.2388 56.0286 49.5738 54.5887 51.6097 57.1321Z" fill="#A18B23" stroke="#A18B23" stroke-width="0.125"/>
<path d="M33.4432 57.1984C31.7278 57.5117 29.7006 57.221 28.7144 58.9363C28.1911 59.6979 26.5277 60.8803 26.8527 61.3836C29.2264 61.7888 31.703 62.3872 34.0876 62.2534C36.3441 61.8685 36.5713 58.5476 34.6045 57.617C34.2507 57.4233 33.8511 57.1901 33.4432 57.1984Z" fill="#C36412" stroke="#C36412" stroke-width="0.125"/>
<path d="M30.1271 57.6394C27.4083 57.9671 24.6021 58.1185 22.1387 59.4406C22.752 60.5007 22.4873 63.0662 24.2641 62.1654C26.2673 61.7493 28.4834 62.0791 30.4374 61.2677C27.9519 60.9044 29.6161 59.7116 30.6313 58.657C31.8967 57.3588 32.1336 57.3295 30.1271 57.6394Z" fill="#A7340E" stroke="#A7340E" stroke-width="0.125"/>
<path d="M24.0959 58.459C22.9647 58.9199 20.3055 58.127 20.7225 59.8486C20.8751 60.8515 21.0678 62.4564 21.9197 62.7724C22.5949 62.2773 24.674 62.6496 24.0759 61.5166C23.2819 60.3563 23.8306 59.7759 25.0501 59.5786C27.9762 58.3755 25.5719 58.2458 24.0959 58.459Z" fill="#6E2916" stroke="#6E2916" stroke-width="0.125"/>
<path d="M5.32228 59.3196C4.5181 63.2676 5.13526 67.2967 5.26623 71.2796C7.85078 68.5187 9.86616 65.1673 12.7932 62.7613C14.0642 62.3566 15.4003 63.2528 16.7073 63.3122C18.7659 64.1161 20.7952 63.244 22.7137 62.5219C22.3042 61.4723 21.7983 60.0743 21.8596 58.7795C18.6939 58.8675 15.5721 59.4123 12.579 60.3541C9.98583 61.1777 7.28292 60.1257 5.46744 58.2435C5.41905 58.6022 5.37067 58.9609 5.32228 59.3196Z" fill="#45271E" stroke="#45271E" stroke-width="0.125"/>
<path d="M48.133 65.2406C48.6197 67.462 48.3771 70.0004 49.4748 71.9964C50.6978 72.9441 51.8969 73.902 51.9856 71.8185C52.6452 70.1181 52.2269 68.2593 52.3261 66.4864C51.6083 67.195 50.4598 67.3983 50.0927 66.2774C49.5658 65.1635 48.7975 64.2089 47.9631 63.3073C48.0197 63.9517 48.0764 64.5962 48.133 65.2406Z" fill="#A16723" stroke="#A16723" stroke-width="0.125"/>
<path d="M49.4123 61.8043C48.4384 61.8202 47.5547 62.32 46.587 62.4019C47.8707 64.2305 48.3846 66.7064 50.1859 68.125C51.1629 68.6951 52.8841 68.0204 52.2646 66.7362C51.7993 65.0962 51.5139 62.9832 50.0832 61.9188C49.8684 61.8429 49.6402 61.8049 49.4123 61.8043Z" fill="#D4911B" stroke="#D4911B" stroke-width="0.125"/>
<path d="M123.152 60.0747C123.329 64.9745 124.296 70.5956 121.007 74.7734C119.547 77.0898 119.771 80.4374 117.087 81.8968C115.545 82.7423 114.927 85.0113 113.069 85.1875C110.937 83.8558 111.787 85.7321 112.127 87.2383C112.172 87.7366 112.599 88.8757 112.048 89.0084C111.502 87.7302 110.344 87.3848 109.008 87.2635C108.311 86.5453 106.84 87.8809 106.411 86.2983C105.811 85.5298 105.101 84.8578 104.396 84.1871C103.596 86.2986 104.107 89.0343 101.956 90.4466C100.792 91.9025 98.8678 92.4814 97.1094 91.7384C96.2487 91.5061 94.9769 91.4761 94.352 91.1994C96.104 88.6915 99.4529 86.5043 98.9115 83.041C98.6653 82.0925 97.1259 82.0768 96.2031 81.7559C94.067 81.4548 92.223 83.614 90.1578 83.0663C88.7413 82.1326 87.6355 80.915 87.2511 79.2225C85.657 79.5278 84.2563 80.7794 82.7164 80.7437C81.7276 79.9839 81.9153 77.4469 80.2836 78.235C77.8314 78.9976 74.7108 80.5074 72.516 78.3559C70.9656 76.9555 73.5935 81.6149 71.6951 79.6165C70.7969 79.0128 69.7441 80.8451 68.7442 79.7233C67.0369 79.1139 66.2227 77.5029 65.3448 76.0756C67.1666 74.5039 66.4028 74.2452 65.002 74.0883C65.5506 73.1425 66.1109 72.2035 66.6506 71.2526C65.9164 71.2649 64.7544 71.9271 64.9329 70.7547C64.5442 68.7019 62.3974 67.1761 60.3103 67.6771C60.244 68.314 61.3219 71.532 60.361 70.1265C59.1079 68.8179 58.2438 66.1975 56.0529 66.3438C54.4432 67.0391 56.8692 64.2709 54.9986 65.4647C53.9169 66.0304 52.1609 66.1055 51.5666 67.0988C51.7845 68.1887 50.2137 70.9471 52.1072 70.4788C53.5415 70.4641 54.9406 68.7007 56.1491 70.2844C58.5572 72.2013 60.7784 74.4907 61.7117 77.4923C62.7226 80.1095 63.9971 82.9235 63.7422 85.801C62.9772 87.7817 62.387 90.4503 64.3064 92.0407C64.3472 92.2963 62.9927 91.6381 62.5762 91.3445C60.8928 90.0245 59.1252 88.7475 57.6721 87.1713C56.2798 85.3005 56.2286 82.765 54.6415 81.0179C54.3726 82.4859 54.9264 84.018 53.2678 84.7886C50.7692 87.1655 47.7009 89.0494 46.1063 92.2274C44.9485 94.4082 42.854 95.8433 41.5054 97.8736C39.3107 96.5343 40.2313 98.1348 40.8935 99.524C39.8591 100.421 37.8891 98.1099 38.0318 99.361C38.2311 100.459 38.6253 101.681 37.1908 101.908C36.0622 102.796 34.7945 102.229 33.7235 101.572C32.8423 103.409 30.4086 102.945 28.8218 103.683C27.7468 104.074 26.1348 103.627 26.0896 105.169C24.98 106.713 26.3082 107.27 27.6368 107.832C30.5691 109.678 34.0254 110.457 37.4191 110.933C39.1366 110.948 40.8497 110.804 42.561 110.679C41.5651 111.705 40.5568 113.401 41.8017 114.646C43.3126 117.021 44.9174 119.371 46.3445 121.817C48.5788 121.401 50.5641 120.403 52.3007 118.951C50.3971 118.385 48.4424 119.494 46.6 118.941C45.1491 117.409 44.0874 115.344 44.7378 113.219C44.9245 111.795 45.1239 110.365 45.1839 108.924C42.2801 108.866 39.3399 109.002 36.4597 108.97C35.8682 107.756 34.5412 107.493 33.3494 107.361C32.7604 107.151 31.5613 106.649 32.8461 106.466C34.8858 105.831 37.1793 106.186 39.0194 104.894C40.665 103.609 43.2377 104.113 44.4439 102.206C45.6094 100.634 46.6712 98.7753 46.0725 96.7535C45.9974 94.6651 48.2866 93.4972 49.3551 91.9427C50.6925 90.0244 52.7235 87.3309 55.4092 88.4823C57.2935 89.7894 56.0887 91.9818 56.4169 93.7921C56.9278 96.4825 55.0074 99.227 56.2028 101.807C57.1727 103.756 59.6561 103.13 61.3081 102.844C60.9647 104.209 60.0862 105.233 58.6103 105.376C56.398 106.231 53.479 107.159 52.7155 109.662C52.5246 110.31 52.9312 111.178 51.9939 111.121C51.3497 111.444 50.0444 112.089 50.2617 112.629C51.2025 113.937 51.8739 113.779 53.0153 113.377C56.8915 113.933 60.6587 112.563 64.4348 111.974C65.5326 111.709 66.6782 111.258 67.2637 110.227C69.3068 112.413 72.5277 111.444 75.0697 112.073C75.915 113.942 73.4225 115.042 72.0863 115.617C73.613 116.178 75.2358 115.991 76.8281 116.1C78.5771 113.665 81.2086 111.574 84.369 111.682C88.1734 111.15 91.8198 109.866 95.3203 108.349C97.6314 108.043 100.222 108.186 102.074 106.489C103.853 105.332 104.371 103.239 104.213 101.242C104.278 99.4488 106.052 98.3403 106.263 96.5503C108.543 96.3568 110.873 96.3167 113.127 95.8211C113.391 94.8476 113.272 93.804 112.847 92.8944C115.149 92.1955 115.886 89.5421 117.408 87.9263C118.856 86.1219 119.771 83.9933 120.822 81.9796C122.594 80.8807 123.502 78.8817 123.532 76.8524C124.141 75.098 125.584 73.5169 124.91 71.5459C124.472 69.4108 125.476 67.378 125.001 65.2488C124.62 63.0631 124.905 60.624 123.64 58.7144C123.477 59.1678 123.314 59.6212 123.152 60.0747ZM82.9123 84.5681C82.7218 86.086 85.8985 84.215 85.5051 86.0629C85.6965 86.985 85.3819 88.4732 86.8015 87.8095C89.0748 87.9335 90.9025 86.5889 92.7382 85.4758C93.4108 85.0114 94.939 86.6879 94.7262 87.2226C93.2928 89.267 91.5569 91.0718 89.9787 92.97C91.0175 93.1834 90.3673 93.2384 89.8803 94.0288C90.6734 94.3134 93.1214 93.8922 92.8936 94.8986C90.5918 96.9448 88.4513 99.2833 85.4756 100.378C84.2488 100.85 82.9789 101.643 81.7635 101.895C79.6369 100.774 77.2093 101.722 75.0768 102.295C76.0473 103.578 73.8859 103.406 73.1184 103.921C71.8655 104.112 70.2722 104.715 69.1012 104.046C67.0951 102.165 65.4525 99.9021 65.0214 97.1263C62.8021 97.4422 60.8594 98.7398 59.3892 100.376C60.4076 97.6021 57.2524 99.5827 57.8421 98.0689C59.0123 95.6053 58.5162 92.8485 58.6923 90.219C61.128 92.5531 63.7534 94.7985 67.0424 95.827C64.8291 97.063 65.7187 97.2561 67.7788 96.902C69.5136 96.6477 71.2837 96.266 72.6976 95.1683C70.1698 94.8672 67.3906 94.8265 65.3725 93.013C64.3335 92.6361 64.6852 90.4519 65.769 90.6576C68.0452 90.7264 69.3677 88.5117 71.5146 88.0954C72.89 87.4123 75.089 87.1834 75.5866 85.6161C76.3935 85.6239 77.048 84.0549 78.2449 84.4865C79.7961 84.6823 81.372 84.537 82.9082 84.2828L82.9123 84.5681ZM111.152 89.9518C111.884 90.9412 110.119 90.1511 111.152 89.9518ZM61.5601 102.194C61.575 102.435 61.3963 102.093 61.5601 102.194ZM61.7914 104.317C62.2324 104.52 61.4417 104.318 61.7914 104.317ZM61.5199 105.58C62.4036 106.245 60.4885 106.139 61.5199 105.58ZM60.2755 105.736C60.6093 106.232 59.7491 106.466 60.1398 105.798C60.171 105.774 60.2328 105.709 60.2755 105.736Z" fill="#302F2E" stroke="#302F2E" stroke-width="0.125"/>
<path d="M43.4597 59.7764C41.3247 59.8033 38.9208 59.9715 37.5625 61.8653C35.8957 62.9374 36.9083 63.5144 38.4571 64.0063C39.5975 64.2556 41.1425 65.735 42.0176 64.9917C42.573 64.0705 43.1222 62.7049 44.438 63.4664C46.5019 64.0594 47.6121 65.1627 49.2274 66.4878C49.0482 63.0444 46.5704 61.0339 43.6054 59.7676L43.4597 59.7764Z" fill="#3B3938" stroke="#3B3938" stroke-width="0.125"/>
<path d="M28.7427 60.5579C25.5708 60.6007 22.4236 61.1313 19.4916 62.3538C17.2491 62.6838 15.1086 61.314 12.8864 61.4538C10.3955 62.3677 9.19162 65.0652 7.40664 66.8524C5.64343 69.1049 3.26921 71.2602 2.87762 74.2174C4.27196 73.8011 5.15171 71.7366 5.96427 71.2696C6.08379 73.1527 4.657 75.4548 6.38971 77.0009C7.56907 77.9646 8.81822 79.6177 7.61293 81.0778C6.81 82.2179 8.82688 82.8706 9.29168 83.8659C12.5677 87.8813 15.0125 92.4833 18.1268 96.6401C20.0476 99.5873 19.9356 103.881 23.1018 105.901C25.9858 107.359 28.8145 109.647 32.1858 109.363C30.7705 107.864 28.8013 107.144 27.0292 106.163C27.1108 104.589 29.0379 105.165 30.0898 104.601C31.4177 104.114 33.1342 104.208 34.136 103.112C35.938 104.396 37.894 102.815 39.5534 102.09C39.4496 101.312 39.1964 100.546 40.2249 100.859C41.1375 100.735 43.0874 100.456 42.1061 99.2815C43.5679 96.6273 46.2696 94.8858 47.6126 92.1194C49.543 88.8428 53.0693 87.0381 55.5951 84.2822C56.1253 83.1415 55.2668 81.6216 54.9808 80.4179C53.5383 83.9186 50.3233 86.0905 47.7105 88.6256C45.503 91.5587 43.8245 95.7795 39.7871 96.5579C39.3505 97.2446 38.3301 96.5256 37.6593 97.0523C35.8076 98.2483 34.1071 99.8512 31.7629 100.032C30.7093 99.1185 30.9396 101.864 29.4609 100.987C28.2339 100.705 27.0498 100.948 26.4051 102.104C26.0124 102.497 25.0173 103.945 24.843 102.818C24.0866 100.811 23.3792 98.4957 24.6302 96.5721C25.2621 95.182 25.627 93.5205 25.4378 92.0877C26.781 93.4027 27.4367 92.894 27.8553 91.3268C29.3631 89.4605 28.592 87.0124 29.2366 84.9157C30.6421 82.1707 31.2963 79.0879 30.8327 76.0166C30.6964 74.4884 30.7293 72.9538 30.7254 71.4216C28.9594 74.2734 26.9606 76.9995 25.5275 80.0462C23.6504 78.6565 21.6057 77.3447 20.0669 75.5883C19.4879 73.5809 20.9099 71.5131 22.0531 69.9292C24.5093 67.1272 27.9913 65.4699 31.2151 63.7053C32.6422 63.2824 33.7052 62.2851 34.7927 61.3223C32.7763 61.0686 30.7568 60.8145 28.7427 60.5579Z" fill="#3A3835" stroke="#3A3835" stroke-width="0.125"/>
<path d="M32.9677 61.29C29.6794 64.2939 25.4908 66.1765 22.2992 69.2699C20.5461 71.3773 20.622 74.4593 22.1464 76.6739C22.7504 77.7425 23.3866 78.7941 23.9077 79.9071C25.1542 78.1774 26.4134 76.3282 28.4324 75.4574C29.2433 74.9802 29.4985 73.8122 30.1749 73.3755C30.1357 74.6204 29.9417 76.0376 31.5597 75.4157C32.6651 75.1663 34.2764 75.3359 34.1425 76.867C34.392 79.5034 32.1188 81.5893 31.9634 84.2017C31.3165 86.7865 29.4156 88.7726 27.929 90.9047C28.6764 92.6711 28.4571 94.6159 28.5433 96.4805C29.547 96.7675 31.1225 98.4732 31.5444 96.8621C32.123 95.4961 32.774 94.0719 34.4749 93.9294C36.7922 93.5503 36.9075 90.8384 38.0128 89.2186C39.6452 85.9227 42.3541 82.978 42.4843 79.1162C42.6977 78.4405 42.1596 76.6461 43.3098 77.5886C45.1896 78.7265 46.6814 81.6273 44.8292 83.4555C42.771 87.2234 40.6866 91.5051 41.6712 95.9192C45.1176 93.1774 47.4659 89.4132 50.462 86.2607C51.9179 84.688 54.1213 83.3335 54.563 81.1124C54.1395 78.0871 52.5344 75.3372 51.4149 72.5284C50.6072 70.1869 50.5098 73.0953 50.56 74.1507C50.8405 76.146 50.8413 78.2034 49.6155 79.9159C49.1668 80.9775 48.2686 79.0717 47.9961 78.5297C47.3798 77.4278 47.4681 75.7873 46.5924 75.0036C44.2935 74.384 42.013 72.0506 39.5086 73.0597C38.1255 73.8114 38.1447 75.6363 37.0863 76.6486C36.6675 74.4351 36.4735 72.1874 36.098 69.9668C34.3267 70.7 34.6615 68.8799 33.3412 69.2881C31.3883 69.4941 29.8162 70.7897 28.4282 71.9988C27.2199 71.8273 25.4234 70.624 24.6093 72.1274C24.2584 72.8009 24.469 73.7297 24.0724 74.2914C23.4975 73.2454 22.5901 70.981 24.4813 70.743C27.039 70.3458 28.005 67.6021 29.9341 66.2176C31.7156 64.5627 33.5811 63.0006 35.3993 61.3863C34.618 61.407 33.6559 60.9465 32.9677 61.29Z" fill="#454447" stroke="#454447" stroke-width="0.125"/>
<path d="M33.5914 61.3686C30.7145 63.7992 27.9149 66.3526 25.4059 69.1443C24.128 69.6388 22.1562 69.8774 22.1434 71.6465C21.995 73.243 22.9879 74.6442 23.549 76.0621C24.6704 75.4555 25.7182 74.8129 25.5328 73.419C25.4203 71.9522 26.9507 72.9015 27.7125 73.1143C29.6425 73.7281 30.4191 71.1713 32.1351 70.861C33.4943 69.9587 33.256 71.6921 34.7255 71.1739C35.6014 71.5585 35.1399 73.4459 35.505 74.3995C35.6702 75.6559 35.8854 76.9056 36.1605 78.1428C38.1317 78.2069 38.9104 76.1993 39.5446 74.7053C40.5712 73.0822 42.6756 74.6456 43.93 75.1591C44.9373 75.7621 46.4179 75.828 46.3091 77.3602C46.7965 79.3067 47.8748 81.2899 49.8684 82.033C51.0275 79.9043 52.4122 77.6566 51.8376 75.1301C51.4031 73.816 52.5186 71.9222 50.77 71.409C48.8541 69.9115 47.9233 69.5757 49.4182 72.1003C50.1078 72.9453 48.5053 72.9687 48.2611 72.2712C47.4752 70.9999 46.4 71.2551 45.247 71.8819C44.2289 71.2291 42.3878 70.5281 42.2471 69.0632C42.6063 67.6846 42.5942 65.0609 44.5366 65.0439C46.3733 65.7187 47.4747 67.9136 49.6855 67.7798C49.5165 66.392 49.6471 64.7909 48.185 64.1134C46.5958 62.9962 44.4357 61.6179 42.4931 62.2904C41.6697 62.7545 41.5554 64.5069 40.4334 63.5518C38.2418 62.8075 35.9072 61.0203 33.5914 61.3686Z" fill="#4B4B4D" stroke="#4B4B4D" stroke-width="0.125"/>
<path d="M32.1976 61.9693C28.6491 63.5091 25.2309 65.4846 22.252 67.9495C20.284 69.8837 18.5655 72.5439 18.7063 75.3811C19.3769 77.6166 21.8937 78.5194 23.4374 80.0609C24.276 80.6943 25.1672 81.2527 26.065 81.7981C26.9987 79.5377 28.2536 77.4748 29.583 75.4363C30.0047 78.3906 29.7043 81.4357 28.2666 84.0884C27.1688 86.2166 28.3356 88.837 26.766 90.8072C26.3472 91.9139 25.0337 90.0992 24.2154 89.9647C23.7352 90.1931 24.3171 91.9881 24.2623 92.8979C24.392 95.6047 21.8179 97.9921 22.9595 100.747C23.3121 102.096 23.7881 103.41 24.1673 104.752C25.9827 104.8 27.0017 103.096 28.1515 102.101C29.2526 101.932 31.0471 102.876 31.5757 101.613C33.0876 103.202 33.5784 103.155 32.9187 101.009C35.0678 100.672 36.6121 99.0893 38.3951 98.0644C39.2724 97.8887 39.9743 98.8684 40.4633 97.6376C44.8042 96.6035 46.5368 91.9907 49.0909 88.9031C51.4566 86.8582 54.0551 84.8716 55.4841 82.0177C54.302 78.1059 52.3319 74.3953 52.1145 70.2444C51.9517 67.5338 51.0549 70.8034 50.7099 71.8714C50.0562 74.1606 52.0186 76.1706 52.5468 78.3107C53.0578 79.6175 53.9478 81.3244 52.5615 82.441C50.3597 84.8352 47.8059 86.9099 46.0147 89.6653C44.9647 90.931 43.7839 92.3663 42.6365 93.3459C42.7077 89.276 45.0858 85.7721 46.8502 82.2402C47.2907 79.1015 44.5474 75.8925 41.3455 75.7815C41.6323 79.2638 40.8292 82.8216 38.6665 85.5697C37.266 87.7402 36.2908 90.2136 35.0234 92.4024C33.4406 92.997 31.4903 93.4256 30.9667 95.2998C30.8772 96.6882 29.2522 95.8531 29.7205 94.8089C29.7102 93.5631 29.6734 92.2922 29.2785 91.0979C31.1806 88.6798 33.0908 86.0778 33.4781 82.9424C34.371 80.5054 36.3558 77.8291 34.8724 75.1979C34.1877 74.0001 32.5937 74.073 31.4057 74.2233C31.7105 72.4832 31.0409 71.7715 29.2768 72.186C28.687 73.5724 27.7138 74.6902 26.3205 75.2766C25.4083 75.8552 24.7105 76.9247 24.0688 77.6021C22.7381 75.5575 21.3343 72.9148 22.8592 70.5797C24.6897 68.1376 27.7043 66.9141 30.0615 65.0433C31.4488 64.0427 32.9352 63.1156 33.8988 61.6651C33.3317 61.7665 32.7647 61.8679 32.1976 61.9693Z" fill="#3E3D3F" stroke="#3E3D3F" stroke-width="0.125"/>
<path d="M44.2663 63.8139C41.781 64.004 41.3544 67.0227 41.0422 68.9628C40.8769 71.2846 43.6017 71.8928 44.831 73.3473C45.738 73.1208 46.8247 72.0437 47.4845 73.1929C48.3718 74.3625 49.8498 73.9862 50.9526 73.4098C51.6712 72.8219 50.0375 71.3647 50.0791 70.2874C49.6561 69.0832 50.0054 67.2986 49.2274 66.4878C47.2631 66.2269 46.3737 63.7576 44.2663 63.8139Z" fill="#5D5B5D" stroke="#5D5B5D" stroke-width="0.125"/>
<path d="M100.596 66.6837C99.1308 67.3047 97.2884 67.8297 97.1849 69.6891C96.7439 70.4474 97.5664 71.9347 96.3134 71.8291C95.1983 72.1481 95.7817 74.1117 94.414 74.4787C92.1168 76.1349 89.9834 78.1377 88.6785 80.6791C89.8183 81.3347 90.5855 83.5351 91.974 83.1843C93.8119 82.8632 95.7896 82.1238 96.4857 80.2188C97.674 78.3005 98.8727 76.1573 98.679 73.8217C100.277 74.358 99.5837 71.8436 100.022 70.8703C99.5105 69.1502 102.82 69.0508 101.559 67.432C101.216 66.9426 101.477 65.994 100.596 66.6837Z" fill="#3B3B3C" stroke="#3B3B3C" stroke-width="0.125"/>
<path d="M123.974 67.5109C123.14 69.4771 123.997 71.6564 123.7 73.628C122.797 75.153 122.139 76.7985 122.045 78.5714C121.544 80.4181 119.29 81.0206 118.92 82.9776C117.575 86.0829 115.328 88.7449 113.272 91.3897C112.464 92.0295 110.349 91.7426 111.616 93.111C112.192 94.0845 113.418 94.7695 113.127 95.8211C116.214 94.587 117.835 93.3121 120.428 91.2834C123.46 88.17 126.827 84.2843 126.167 79.6162C125.743 74.9554 125.537 70.2691 124.8 65.6522C124.525 66.2718 124.249 66.8913 123.974 67.5109Z" fill="#383734" stroke="#383734" stroke-width="0.125"/>
<path d="M54.7147 68.337C53.5676 68.6542 52.5413 69.4236 51.2964 69.3198C50.6684 73.1609 52.328 76.8606 53.6962 80.3979C54.9492 83.7532 55.5517 87.9174 58.9142 89.9254C60.414 91.2405 61.9454 92.6523 63.8602 93.3077C66.3555 95.7074 70.183 96.8939 73.4913 95.49C79.2849 93.8675 85.1086 93.9535 91.0901 94.208C92.0671 93.8517 94.0474 93.6449 93.2327 92.2122C92.6533 90.7798 94.5655 89.9397 95.0619 88.7359C95.5956 87.8194 97.2395 86.9862 95.767 86.1304C94.9366 85.4286 94.1481 84.0073 93.1607 83.9216C91.0291 84.7746 89.1852 86.8474 86.7879 86.5484C86.4645 85.5291 87.0329 83.658 85.3771 84.0538C83.558 84.5499 84.6364 82.1237 82.7902 83.0839C80.7911 83.6905 78.6796 82.957 76.7095 83.4984C75.9256 83.6924 75.5179 84.8135 74.6431 84.0379C74.8637 86.2357 72.2852 86.3435 70.8026 87.0786C69.1204 87.4607 67.9505 88.8548 66.3845 89.3829C65.701 89.3776 64.5741 89.7552 64.2042 89.3501C64.1664 87.3113 65.6764 85.4474 64.8544 83.3886C63.9803 79.6427 62.774 75.7995 60.4354 72.6874C58.7867 71.0331 57.1753 69.0524 54.8905 68.2853L54.7147 68.337Z" fill="#2A2A29" stroke="#2A2A29" stroke-width="0.125"/>
<path d="M100.034 69.0533C98.5484 69.1786 99.3217 71.4873 100.596 70.8551C101.569 70.3779 101.049 68.9576 100.034 69.0533Z" fill="#39393A" stroke="#39393A" stroke-width="0.125"/>
<path d="M5.61437 69.5688C3.48735 72.1728 1.24575 74.8703 0.750427 78.2978C3.43579 79.3311 6.03274 80.6614 8.23075 82.5567C9.13243 81.1388 9.86556 79.2435 8.69631 77.7489C7.76372 76.5487 6.00788 75.4736 6.89482 73.6937C7.21013 72.7953 7.13912 71.6655 7.2347 70.8481C10.0173 70.4567 5.91948 68.9355 5.61437 69.5688Z" fill="#2F2E2C" stroke="#2F2E2C" stroke-width="0.125"/>
<path d="M51.1955 70.0684C50.8392 71.4134 51.2292 72.8523 51.8841 74.0466C52.8247 72.3151 52.5202 70.2379 51.8965 68.4591C51.6628 68.9955 51.4292 69.5319 51.1955 70.0684Z" fill="#37322B" stroke="#37322B" stroke-width="0.125"/>
<path d="M102.854 82.7416C101.212 83.4398 99.663 84.3233 98.1456 85.2538C100.446 85.0802 102.577 86.2136 103.805 88.1248C104.896 90.2943 104.845 87.73 105.064 86.6136C105.422 85.0903 104.421 82.8934 102.904 82.7189L102.854 82.7416Z" fill="#4A2D1C" stroke="#4A2D1C" stroke-width="0.125"/>
<path d="M99.6508 84.3691C96.6451 86.4227 94.0954 89.1151 92.2431 92.2439C94.7501 92.3189 97.1761 93.3526 99.6756 93.0541C98.6596 91.8798 96.9861 91.5047 95.8313 90.6364C96.6863 88.8644 98.3823 86.7458 100.555 87.0363C102.11 87.7424 102.817 89.4454 103.954 90.6211C104.384 89.2842 105.524 87.6314 104.092 86.576C103.006 85.363 101.333 84.0136 99.6508 84.3691Z" fill="#6D531F" stroke="#6D531F" stroke-width="0.125"/>
<path d="M93.8959 84.6485C91.7399 84.8732 91.5376 85.5556 93.2905 86.664C94.5283 87.7485 96.1771 89.498 95.0406 86.7239C94.6197 86.1558 95.0421 83.9366 93.8959 84.6485Z" fill="#2D2D2C" stroke="#2D2D2C" stroke-width="0.125"/>
<path d="M61.4969 104.877C59.7985 104.86 60.6975 107.58 62.0587 106.589C62.7986 106.102 62.3682 104.854 61.4969 104.877Z" fill="#2D2D2C" stroke="#2D2D2C" stroke-width="0.125"/>
<path d="M60.0755 105.054C58.5229 105.107 59.2075 107.376 60.5581 106.893C61.769 106.552 61.2178 104.929 60.0755 105.054Z" fill="#2D2D2C" stroke="#2D2D2C" stroke-width="0.125"/>
<path d="M99.8409 85.7399C97.0855 86.1935 95.121 88.7104 94.2995 91.2364C96.3045 92.2621 98.6755 94.2074 100.978 92.7676C102.419 91.9616 103.396 90.5856 104.572 89.4686C103.282 88.0028 102.137 85.6486 99.8409 85.7399ZM99.4638 88.5175C100.859 88.235 102.275 90.1725 100.789 91.0374C99.8792 91.5426 98.0106 91.1928 97.7384 90.28C97.8208 89.4026 98.481 88.4375 99.4638 88.5175Z" fill="#9E7E1E" stroke="#9E7E1E" stroke-width="0.125"/>
<path d="M54.1854 86.9905C51.377 86.9939 49.656 89.4888 48.1543 91.4807C46.7418 93.1668 44.2522 94.8888 44.9275 97.4403C45.2841 99.2736 43.9747 101.002 42.7333 102.211C41.0319 102.742 39.2666 103.217 37.7201 104.196C35.4942 105.2 32.7723 104.599 30.7189 106.152C29.2134 106.658 31.2701 107.506 31.9303 108.028C32.996 108.947 34.7579 108.254 35.4536 109.636C36.1421 110.825 37.9746 109.905 39.1621 110.161C40.6873 110.199 42.5233 109.992 43.8863 110.192C43.7626 112.752 42.5356 115.695 44.3831 117.961C45.0179 119.376 46.3259 120.676 48.0085 120.318C49.7981 120.163 51.4666 119.894 52.9952 118.891C56.9094 116.819 61.4776 117.429 65.7028 116.625C68.558 116.058 71.523 116.329 74.3658 115.827C76.1726 115.082 77.4744 112.061 75.4421 110.876C73.2487 110.208 70.4547 111.207 68.694 109.705C68.8235 108.866 70.4731 106.278 68.7856 107.248C66.6539 107.672 66.4857 110.63 64.2201 110.788C60.8152 111.349 57.4268 112.438 53.9423 112.295C53.6527 110.781 53.7484 108.983 55.3284 108.227C57.1054 106.814 59.6143 106.699 61.3571 105.433C62.292 104.126 62.6149 102.514 63.3509 101.105C62.1216 101.018 60.8915 100.945 59.6595 100.909C60.7989 102.22 58.5366 102.152 57.7465 101.768C56.1616 100.221 57.5728 97.9282 57.609 96.0407C57.688 94.079 57.5548 92.1095 57.7264 90.1597C57.4291 88.4813 56.0283 86.8389 54.1854 86.9905ZM50.3912 112.379C50.7338 112.854 49.5344 112.887 50.2585 112.384C50.3013 112.372 50.3477 112.367 50.3912 112.379Z" fill="#2A2A28" stroke="#2A2A28" stroke-width="0.125"/>
<path d="M99.2968 87.314C97.2833 87.2722 95.8386 90.0298 96.8474 91.5252C98.5104 92.586 101.268 93.1218 102.4 91.0368C103.382 89.0624 101.378 87.0923 99.2968 87.314Z" fill="#C8A61F" stroke="#C8A61F" stroke-width="0.125"/>
<path d="M57.5104 88.9896C57.6601 91.6368 56.9097 94.4292 57.8562 96.9472C59.1473 95.5479 58.4266 93.2249 59.3703 91.8094C60.7088 92.089 61.831 93.0899 63.2754 93.1386C61.7184 91.0293 59.6342 89.3743 57.5364 87.8206C57.5277 88.2103 57.5191 88.5999 57.5104 88.9896Z" fill="#8D4F1C" stroke="#8D4F1C" stroke-width="0.125"/>
<path d="M110.97 89.2602C109.54 89.432 110.207 91.7211 111.511 91.0415C112.451 90.5643 112.066 89.0995 110.97 89.2602Z" fill="#2E2D29" stroke="#2E2D29" stroke-width="0.125"/>
<path d="M59.365 90.6041C57.5201 90.6951 57.8376 93.1497 57.5151 94.4585C57.2401 95.8619 57.3529 97.2926 57.3971 98.7103C59.2004 98.4813 61.6696 98.7189 62.4387 96.6307C63.0636 95.2531 63.257 93.4589 62.6759 92.1241C61.7304 91.4653 60.5764 90.6317 59.365 90.6041Z" fill="#C98C1A" stroke="#C98C1A" stroke-width="0.125"/>
<path d="M61.6993 92.6707C61.938 94.277 61.8675 96.9725 59.7828 97.2519C58.5141 97.7609 58.3796 96.9056 58.5554 95.8393C58.5352 92.7834 57.2384 95.7199 56.8835 97.1289C56.8163 98.1888 54.6603 101.37 56.8847 100.099C59.2894 99.2465 61.6723 98.3566 64.0886 97.5625C64.6735 96.0608 64.5502 93.9985 63.5912 92.814C62.8265 92.4438 61.1299 90.3289 61.6283 92.1169L61.6666 92.415L61.6993 92.6707Z" fill="#A65B17" stroke="#A65B17" stroke-width="0.125"/>
<path d="M62.893 93.5913C63.2743 95.0374 63.419 96.5965 62.6588 97.9594C65.0274 97.1395 67.7419 97.3898 69.6682 95.5687C67.251 94.6324 64.7943 93.727 62.6364 92.2627C62.7219 92.7056 62.8075 93.1484 62.893 93.5913Z" fill="#923211" stroke="#923211" stroke-width="0.125"/>
<path d="M83.6659 92.8639C82.0568 92.9674 80.3014 92.7029 78.9235 93.7128C81.374 94.786 84.4336 93.984 86.903 94.4362C86.7092 96.3313 86.1233 98.4431 84.0824 99.0854C82.6103 99.8414 81.0067 100.705 79.3631 99.8211C77.4318 99.3748 75.4394 100.041 73.4972 100.076C72.4637 100.317 71.854 101.7 70.9127 101.748C70.5171 100.781 71.4123 98.9162 69.8435 99.0919C69.2626 98.9315 67.9916 98.6483 68.0526 98.1954C69.361 97.1233 70.7554 96.1558 71.9235 94.924C67.9036 95.7197 63.7925 96.0577 59.9557 97.7192C58.3443 98.5362 55.7786 98.3968 55.6493 100.688C57.076 100.227 58.6635 99.5188 58.2135 101.573C57.913 104.038 58.7186 103.228 59.7793 101.743C60.9539 100.388 62.3524 99.1005 64.1121 98.5747C64.9216 101.264 66.6702 103.796 68.9861 105.387C71.7713 106.067 74.4058 104.508 77.083 104.073C76.0846 102.923 77.4055 102.886 78.2632 102.705C79.4666 102.44 80.8069 102.537 81.8054 103.326C85.5881 101.657 89.6565 100.163 92.4066 96.9178C92.9085 95.9859 95.2487 95.4526 94.5001 94.4526C92.9527 92.1404 89.8354 93.2803 87.5566 92.9209C86.2601 92.8827 84.9631 92.8489 83.6659 92.8639Z" fill="#373737" stroke="#373737" stroke-width="0.125"/>
<path d="M80.2617 93.0482C76.7092 93.4918 73.1307 94.1486 69.7556 95.328C68.4241 96.334 67.1223 97.3784 65.8552 98.4637C66.9235 99.3609 68.5068 99.8874 69.5915 100.421C69.5665 101.542 69.6722 103.442 71.249 102.981C72.7264 102.62 73.4528 100.701 75.1854 101.152C76.9562 100.94 78.7429 100.627 80.4506 101.343C82.399 101.714 84.1123 100.32 85.7718 99.5152C88.0021 98.2295 87.8089 95.3572 88.3652 93.1903C85.6637 93.158 82.9638 93.0291 80.2617 93.0482Z" fill="#414243" stroke="#414243" stroke-width="0.125"/>
<path d="M106.224 95.3473C104.704 95.1234 105.197 97.1619 104.367 98.0181C102.82 99.4878 103.019 101.672 102.834 103.6C101.79 106.203 98.7602 107.082 96.1641 106.988C93.3628 107.345 91.0332 109.203 88.2271 109.63C85.1258 110.787 81.3811 110.047 78.75 112.377C77.6324 113.015 76.9989 114.552 75.8569 114.86C73.3295 114.879 70.6516 114.644 68.2306 115.314C66.5486 116.137 70.0579 116.386 70.978 116.312C75.2063 116.381 79.3638 117.3 83.6015 116.969C88.0906 116.962 92.218 114.92 96.3984 113.545C101.057 111.763 105.532 109.388 109.281 106.074C109.387 103.539 109.96 100.803 108.451 98.5423C107.814 97.5653 107.275 95.6464 106.224 95.3473Z" fill="#383735" stroke="#383735" stroke-width="0.125"/>
<path d="M61.7088 103.272C60.2192 103.736 61.2131 106.446 62.4812 105.18C63.1655 104.521 62.8308 102.956 61.7088 103.272Z" fill="#2C2C2C" stroke="#2C2C2C" stroke-width="0.125"/>
<path d="M64.0761 104.794C62.604 105.102 61.2216 105.716 59.8247 106.253C61.9426 106.557 64.1425 106.826 65.8499 108.257C65.2037 107.341 65.2709 104.667 64.0761 104.794Z" fill="#2C2C2C" stroke="#2C2C2C" stroke-width="0.125"/>
<path d="M50.0809 111.591C48.4127 111.793 49.6955 114.401 50.9424 113.357C51.6827 112.717 50.9891 111.492 50.0809 111.591Z" fill="#2E2E2A" stroke="#2E2E2A" stroke-width="0.125"/>
</svg>
